<svg width="125" height="179" viewBox="0 0 125 179" fill="none" xmlns="http://www.w3.org/2000/svg">
<g clip-path="url(#clip0)">
<g opacity="0.8">
<path d="M54.1939 49.8449C53.218 47.9934 52.5054 46.0384 52.1144 44.0904C51.878 42.8379 51.6117 40.1886 53.2582 39.4268C55.4298 38.3882 56.6574 40.2483 56.6574 40.2483C56.7594 40.4417 56.8613 40.6352 56.9487 40.801C61.825 49.9191 72.3246 54.0961 81.879 51.3204C83.6305 50.8917 88.9107 48.8503 89.6363 50.7631C90.3328 52.6207 88.3685 54.8566 88.2464 55.0269C86.8097 56.455 85.1591 57.678 83.3075 58.6539C72.8222 64.2861 59.7838 60.3172 54.1939 49.8449Z" fill="#FFCD00"/>
<path d="M55.4478 45.7242C54.37 43.6792 53.6398 41.5569 53.2589 39.4271C55.4305 38.3885 56.658 40.2486 56.658 40.2486C56.76 40.4421 56.862 40.6355 56.9493 40.8013C57.1096 41.1053 57.2698 41.4093 57.4576 41.6988C57.5159 41.8093 57.5872 41.8776 57.6455 41.9882C57.7751 42.1671 57.8916 42.3881 58.0212 42.567C58.0794 42.6776 58.1653 42.7735 58.2382 42.9117C58.3678 43.0906 58.4828 43.2418 58.6124 43.4207C58.6983 43.5167 58.7711 43.6549 58.857 43.7508C58.972 43.9021 59.1016 44.081 59.2443 44.2177C59.3302 44.3136 59.4306 44.4372 59.5165 44.5332C59.6315 44.6845 59.7888 44.8488 59.9314 44.9855C60.0173 45.0815 60.1032 45.1774 60.1891 45.2734C60.3463 45.4377 60.5036 45.602 60.6608 45.7664C60.7321 45.8347 60.818 45.9307 60.8893 45.999C61.1179 46.2317 61.3741 46.4498 61.6026 46.6824C61.6594 46.7231 61.7162 46.7638 61.7875 46.8322C61.9869 47.0096 62.1718 47.1593 62.3712 47.3367C62.4847 47.4181 62.5706 47.5141 62.6696 47.5679C62.8399 47.69 62.9826 47.8267 63.1383 47.9211C63.2518 48.0025 63.3654 48.084 63.4789 48.1654C63.6346 48.2598 63.7627 48.3689 63.933 48.491C64.0465 48.5724 64.1877 48.6393 64.3158 48.7483C64.4715 48.8428 64.6273 48.9373 64.783 49.0318C64.8965 49.1132 65.0377 49.18 65.1788 49.2469C65.3346 49.3413 65.4757 49.4082 65.6315 49.5027C65.7726 49.5695 65.8862 49.6509 66.0273 49.7178C66.1831 49.8123 66.3519 49.8645 66.5076 49.959C66.6488 50.0259 66.7477 50.0796 66.8889 50.1465C67.1712 50.2802 67.439 50.3862 67.7213 50.5199C67.8625 50.5868 68.0313 50.639 68.1579 50.6783C68.2991 50.7451 68.4679 50.7974 68.609 50.8642C68.7778 50.9165 68.919 50.9834 69.0878 51.0356C69.2144 51.0749 69.3832 51.1271 69.5098 51.1663C69.6786 51.2186 69.8474 51.2709 70.0162 51.3232C70.1428 51.3624 70.297 51.3871 70.4382 51.4539C70.607 51.5062 70.7758 51.5585 70.9577 51.5685C71.0843 51.6077 71.2385 51.6324 71.3651 51.6716C71.5339 51.7239 71.7303 51.7616 71.9122 51.7717C72.0388 51.8109 72.1785 51.8079 72.3051 51.8471C72.5015 51.8848 72.6834 51.8949 72.8798 51.9326C72.9919 51.9442 73.1039 51.9558 73.1883 51.9819C73.9027 52.0644 74.6171 52.147 75.3301 52.1597C75.4421 52.1712 75.5396 52.1552 75.6516 52.1667C75.8611 52.1623 76.0706 52.1578 76.2525 52.1678C76.3645 52.1794 76.4896 52.1488 76.6017 52.1604C76.8112 52.1559 77.0207 52.1514 77.188 52.1339C77.3277 52.1309 77.4251 52.1148 77.5648 52.1118C77.7743 52.1073 77.9692 52.0752 78.1787 52.0707C78.3039 52.0401 78.4159 52.0517 78.541 52.0211C78.7359 51.9889 78.9454 51.9844 79.168 51.9378C79.2655 51.9217 79.363 51.9056 79.4881 51.875C79.7106 51.8283 79.9056 51.7962 80.1282 51.7495C80.1834 51.7204 80.2256 51.7335 80.2809 51.7043C80.8235 51.5949 81.3938 51.4709 81.9349 51.2917C83.6864 50.8629 88.9666 48.8216 89.6922 50.7344C88.2425 52.2047 86.5235 53.4991 84.5891 54.5186C74.0761 60.1654 61.0377 56.1965 55.4478 45.7242Z" fill="#FFE266"/>
<path d="M84.6434 50.5342C86.7411 49.9583 89.1909 49.5146 89.6368 50.7627C90.3334 52.6203 88.369 54.8561 88.2469 55.0264C88.1379 55.1545 88.0143 55.255 87.863 55.37L84.6434 50.5342Z" fill="#895140"/>
<path d="M89.651 50.7903C88.7073 51.7468 87.6777 52.6072 86.5345 53.3863L84.6575 50.5619C84.7826 50.5312 84.9077 50.5006 85.0052 50.4846C85.0329 50.47 85.0605 50.4554 85.1027 50.4685C85.2002 50.4524 85.2831 50.4087 85.3805 50.3927C85.4082 50.3781 85.4504 50.3912 85.478 50.3766C85.7282 50.3154 85.9784 50.2541 86.201 50.2074C86.2286 50.1929 86.2708 50.2059 86.2985 50.1914C86.3959 50.1753 86.4658 50.1738 86.5632 50.1578C86.5909 50.1432 86.6331 50.1563 86.6884 50.1271C86.7858 50.1111 86.8833 50.095 86.9808 50.079C87.0084 50.0644 87.0084 50.0644 87.0506 50.0775C87.1481 50.0614 87.2877 50.0584 87.3852 50.0424C87.4129 50.0278 87.4551 50.0409 87.4827 50.0263C87.5525 50.0248 87.65 50.0087 87.7198 50.0072C87.762 50.0203 87.7897 50.0057 87.8319 50.0188C87.9017 50.0173 87.9715 50.0158 88.0414 50.0143C88.069 49.9998 88.1112 50.0128 88.1112 50.0128C88.2232 50.0244 88.2931 50.0229 88.4051 50.0345C88.4328 50.0199 88.4473 50.0476 88.4749 50.033C88.5448 50.0315 88.587 50.0446 88.6714 50.0707C88.7136 50.0838 88.7136 50.0838 88.7558 50.0969C88.798 50.1099 88.8824 50.1361 88.9246 50.1491C88.9668 50.1622 88.9668 50.1622 89.009 50.1753C89.0934 50.2014 89.1501 50.2421 89.2069 50.2828C89.2069 50.2828 89.2215 50.3105 89.2491 50.2959C89.3059 50.3366 89.3481 50.3497 89.3772 50.4049C89.3918 50.4326 89.3918 50.4326 89.434 50.4457C89.4485 50.4733 89.5053 50.514 89.5344 50.5693C89.549 50.5969 89.549 50.5969 89.5636 50.6245C89.5781 50.6522 89.6073 50.7074 89.651 50.7903Z" fill="#A05F4B"/>
<path d="M51.8457 32.7839L55.9053 32.678L56.1539 42.2023L52.0943 42.3083L51.8457 32.7839Z" fill="#A05F4B"/>
<path d="M51.834 32.7964L53.8638 32.7434L54.1124 42.2677L52.0826 42.3207L51.834 32.7964Z" fill="#895140"/>
<path d="M49.5954 50.4324C49.5416 47.9183 49.8385 45.4666 50.4599 43.1616C50.8897 41.6992 51.9865 38.7553 54.1951 38.7918C57.089 38.8557 57.3829 41.4904 57.3829 41.4904C57.3743 41.7421 57.3657 41.9938 57.3993 42.2586C57.7337 54.6179 66.7251 64.71 78.4254 66.877C80.5178 67.3632 87.2661 67.9733 86.9969 70.4104C86.7538 72.7632 83.4708 74.1051 83.2221 74.2361C80.9325 74.9838 78.5103 75.413 75.9962 75.4668C61.7643 75.7993 49.9411 64.6221 49.5954 50.4324Z" fill="#FFCD00"/>
<path d="M53.1347 46.6956C53.0618 43.9444 53.4241 41.2817 54.153 38.7788C57.0469 38.8427 57.3408 41.4773 57.3408 41.4773C57.3322 41.7291 57.3237 41.9808 57.3573 42.2455C57.3662 42.6646 57.4028 43.069 57.4118 43.488C57.4148 43.6277 57.4454 43.7528 57.4484 43.8925C57.482 44.1572 57.488 44.4366 57.5362 44.729C57.5537 44.8963 57.5989 45.049 57.6019 45.1887C57.6355 45.4535 57.6822 45.6761 57.7158 45.9408C57.7334 46.1081 57.7786 46.2609 57.7961 46.4282C57.8428 46.6508 57.9041 46.901 57.9231 47.1381C57.9683 47.2909 57.9859 47.4582 58.031 47.6109C58.0923 47.8611 58.139 48.0837 58.2279 48.3194C58.2731 48.4721 58.3182 48.6248 58.3634 48.7776C58.4247 49.0278 58.5281 49.2911 58.5894 49.5413C58.62 49.6664 58.6506 49.7915 58.7089 49.902C58.8284 50.2628 58.9625 50.6512 59.1096 50.9974C59.1533 51.0803 59.197 51.1632 59.2131 51.2606C59.3311 51.5516 59.4345 51.8149 59.5802 52.0912C59.653 52.2294 59.7258 52.3676 59.771 52.5203C59.8875 52.7414 59.9619 52.9494 60.0784 53.1705C60.1512 53.3086 60.2386 53.4745 60.3114 53.6126C60.4134 53.8061 60.5153 53.9995 60.6173 54.193C60.7047 54.3588 60.7775 54.497 60.8925 54.6482C60.9945 54.8417 61.1241 55.0205 61.2115 55.1864C61.2989 55.3522 61.4139 55.5034 61.4867 55.6416C61.6163 55.8205 61.7037 55.9863 61.8333 56.1652C61.9483 56.3164 62.0211 56.4546 62.1361 56.6058C62.2657 56.7847 62.3953 56.9636 62.5103 57.1148C62.6108 57.2384 62.7258 57.3897 62.8263 57.5133C63.0418 57.7882 63.2995 58.0761 63.515 58.3509C63.63 58.5022 63.7726 58.6389 63.8877 58.7901C64.0303 58.9268 64.1454 59.0781 64.288 59.2147C64.4307 59.3514 64.5733 59.4881 64.7306 59.6524C64.8732 59.7891 64.9737 59.9127 65.1163 60.0494C65.259 60.1861 65.4162 60.3504 65.5865 60.4725C65.7146 60.5816 65.8427 60.6906 65.9854 60.8273C66.128 60.964 66.3129 61.1137 66.4556 61.2504C66.5836 61.3594 66.7117 61.4685 66.8398 61.5775C67.0101 61.6997 67.195 61.8494 67.3377 61.9861C67.4658 62.0951 67.5793 62.1765 67.735 62.271C67.9199 62.4208 68.0902 62.5429 68.3027 62.6781C68.4162 62.7595 68.5152 62.8133 68.6287 62.8947C69.3375 63.3686 70.074 63.8279 70.8511 64.2305C70.9501 64.2843 71.0636 64.3657 71.1902 64.4049C71.3882 64.5124 71.6283 64.633 71.8538 64.726C71.995 64.7929 72.094 64.8467 72.2351 64.9135C72.4607 65.0065 72.6586 65.114 72.8842 65.207C73.0254 65.2739 73.152 65.3131 73.2931 65.3799C73.5187 65.4729 73.7443 65.5659 73.9698 65.6589C74.0964 65.6981 74.2376 65.765 74.3642 65.8042C74.5898 65.8972 74.843 65.9756 75.054 66.0409C75.1806 66.0801 75.3072 66.1193 75.4338 66.1586C75.687 66.237 75.9402 66.3154 76.1934 66.3938C76.2356 66.4069 76.32 66.433 76.3622 66.4461C77.0228 66.6276 77.6965 66.7669 78.3702 66.9062C80.4627 67.3924 87.1833 68.0171 86.9418 70.4397C84.5969 71.2165 82.0918 71.6893 79.4802 71.7592C65.3036 72.0626 53.508 60.8708 53.1347 46.6956Z" fill="#FFE266"/>
<path d="M81.7355 67.4628C84.3038 67.9807 87.1297 68.7866 86.9546 70.3973C86.7115 72.7501 83.4285 74.0919 83.1798 74.223C82.9994 74.2828 82.7914 74.3571 82.5964 74.3892L81.7355 67.4628Z" fill="#895140"/>
<path d="M86.9546 70.3974C85.4563 70.9046 83.8576 71.2882 82.2413 71.5044L81.7502 67.4906C81.9044 67.5152 82.031 67.5544 82.1852 67.5791C82.2274 67.5921 82.2696 67.6052 82.2973 67.5906C82.4093 67.6022 82.5359 67.6414 82.6203 67.6676C82.6625 67.6806 82.7047 67.6937 82.7469 67.7068C83.0277 67.7706 83.3231 67.8621 83.604 67.926C83.6462 67.9391 83.6884 67.9521 83.7306 67.9652C83.815 67.9913 83.9416 68.0306 84.026 68.0567C84.0682 68.0698 84.1104 68.0828 84.1526 68.0959C84.2792 68.1351 84.3636 68.1613 84.4902 68.2005C84.5324 68.2135 84.5324 68.2135 84.5746 68.2266C84.7012 68.2658 84.8278 68.305 84.9413 68.3864C84.9835 68.3995 85.0257 68.4126 85.0403 68.4402C85.1247 68.4663 85.2236 68.5201 85.3081 68.5463C85.3503 68.5593 85.3924 68.5724 85.4346 68.5855C85.5191 68.6116 85.5904 68.68 85.6748 68.7061C85.717 68.7192 85.7315 68.7468 85.7737 68.7599C85.8727 68.8137 85.9717 68.8674 86.0706 68.9212C86.0852 68.9488 86.1274 68.9619 86.142 68.9895C86.1987 69.0303 86.2555 69.071 86.3268 69.1393C86.3414 69.1669 86.3836 69.18 86.3982 69.2076C86.4549 69.2483 86.5117 69.289 86.5408 69.3443C86.5554 69.3719 86.5976 69.385 86.6122 69.4127C86.6835 69.481 86.7272 69.5639 86.7563 69.6192C86.7709 69.6468 86.7709 69.6468 86.7854 69.6745C86.8146 69.7297 86.8437 69.785 86.8728 69.8403C86.8874 69.8679 86.902 69.8955 86.9165 69.9232C86.9457 69.9784 86.9472 70.0483 86.9617 70.0759C86.9763 70.1035 86.9632 70.1457 86.9778 70.1734C86.9647 70.2156 86.9808 70.313 86.9546 70.3974Z" fill="#A05F4B"/>
<path d="M44.7121 46.8618C45.8515 44.6016 47.2762 42.6148 48.9295 40.8607C49.9822 39.7762 52.3831 37.6986 54.2926 38.7756C56.8104 40.2029 55.8152 42.6696 55.8152 42.6696C55.6946 42.9097 55.5594 43.1222 55.4664 43.3478C49.8756 54.3808 53.0083 67.5606 62.292 74.9914C63.9151 76.396 69.5434 80.1741 68.1609 82.1739C66.8191 84.117 63.2762 83.7597 63.0099 83.7235C60.6527 83.2709 58.3171 82.5244 56.0569 81.385C43.3722 75.0051 38.2901 59.5334 44.7121 46.8618Z" fill="#FFCD00"/>
<path d="M49.5966 45.2758C50.8435 42.8177 52.418 40.6461 54.2647 38.79C56.7825 40.2173 55.7873 42.6839 55.7873 42.6839C55.6667 42.9241 55.5315 43.1366 55.4385 43.3621C55.251 43.7434 55.0912 44.1102 54.9037 44.4915C54.8645 44.6181 54.7831 44.7316 54.7439 44.8582C54.6378 45.126 54.5172 45.3661 54.4388 45.6193C54.372 45.7605 54.3197 45.9293 54.2805 46.0559C54.1875 46.2814 54.1091 46.5346 54.0161 46.7602C53.9638 46.929 53.8969 47.0702 53.8723 47.2244C53.7793 47.45 53.7285 47.6886 53.6777 47.9272C53.6255 48.096 53.6008 48.2503 53.534 48.3914C53.4832 48.6301 53.4048 48.8833 53.354 49.1219C53.3293 49.2761 53.277 49.445 53.2378 49.5716C53.174 49.8524 53.1232 50.091 53.087 50.3573C53.0478 50.4839 53.0362 50.5959 53.0115 50.7502C52.9361 51.1431 52.8883 51.5214 52.8405 51.8997C52.8144 51.9841 52.8304 52.0815 52.8043 52.1659C52.7826 52.4598 52.7333 52.7683 52.7117 53.0622C52.687 53.2165 52.7046 53.3838 52.6799 53.538C52.6568 53.7621 52.6482 54.0138 52.6673 54.2509C52.6572 54.4328 52.6747 54.6001 52.6501 54.7543C52.6546 54.9638 52.6314 55.1879 52.6505 55.425C52.6404 55.6069 52.6579 55.7742 52.6479 55.9561C52.6523 56.1656 52.6568 56.3751 52.6613 56.5846C52.6789 56.7519 52.6834 56.9614 52.7009 57.1287C52.7054 57.3382 52.7375 57.5332 52.7566 57.7703C52.7741 57.9376 52.8062 58.1326 52.8238 58.2999C52.8559 58.4948 52.875 58.732 52.9216 58.9545C52.9392 59.1218 52.9567 59.2891 53.0165 59.4695C53.0662 59.8318 53.1435 60.1795 53.2354 60.5548C53.2675 60.7497 53.3272 60.9301 53.387 61.1105C53.4191 61.3054 53.4789 61.4858 53.5386 61.6662C53.5984 61.8465 53.6451 62.0691 53.7048 62.2495C53.7646 62.4299 53.8098 62.5826 53.8695 62.763C53.9438 62.971 54.0036 63.1514 54.0779 63.3594C54.1231 63.5121 54.1829 63.6925 54.2702 63.8583C54.3446 64.0663 54.4189 64.2743 54.5063 64.4402C54.5515 64.5929 54.6388 64.7587 54.684 64.9114C54.7584 65.1195 54.8603 65.3129 54.9346 65.5209C55.0075 65.6591 55.0526 65.8118 55.1255 65.95C55.2274 66.1435 55.3163 66.3791 55.4183 66.5725C55.4765 66.6831 55.5348 66.7936 55.593 66.9042C56.0009 67.678 56.4218 68.4095 56.9125 69.1396C56.9707 69.2502 57.0566 69.3462 57.1149 69.4567C57.2591 69.6632 57.3886 69.8421 57.5328 70.0486C57.6187 70.1446 57.6915 70.2828 57.7774 70.3787C57.9216 70.5853 58.0788 70.7496 58.2229 70.9561C58.3234 71.0797 58.4093 71.1757 58.5098 71.2993C58.6816 71.4912 58.8111 71.6701 58.9829 71.8621C59.0688 71.958 59.1693 72.0817 59.2552 72.1776C59.427 72.3696 59.5842 72.5339 59.756 72.7259C59.8419 72.8218 59.9278 72.9178 60.0413 72.9992C60.2131 73.1912 60.4125 73.3686 60.6119 73.5459C60.6687 73.5867 60.6979 73.6419 60.7546 73.6826C61.2539 74.161 61.7663 74.5972 62.3063 75.0188C63.9294 76.4234 69.5431 80.1739 68.1752 82.2013C65.7205 81.7648 63.3005 80.9922 60.9836 79.8121C48.2697 73.3769 43.2022 57.9329 49.5966 45.2758Z" fill="#FFE266"/>
<path d="M64.9092 77.143C66.915 78.8048 69.0273 80.8696 68.1056 82.2028C66.7638 84.1459 63.2209 83.7886 62.9546 83.7523C62.7582 83.7146 62.5618 83.6769 62.3653 83.6392L64.9092 77.143Z" fill="#895140"/>
<path d="M68.1333 82.1883C66.5488 81.9288 64.9743 81.4874 63.4666 80.9048L64.9369 77.1285C65.0504 77.2099 65.1785 77.3189 65.2644 77.4149C65.279 77.4425 65.3211 77.4556 65.3503 77.5109C65.4216 77.5792 65.5351 77.6606 65.6065 77.7289C65.621 77.7566 65.6632 77.7697 65.6924 77.8249C65.9064 78.03 66.148 78.2204 66.362 78.4254C66.3765 78.4531 66.4333 78.4938 66.4479 78.5214C66.5192 78.5897 66.5905 78.6581 66.6764 78.7541C66.691 78.7817 66.7478 78.8224 66.7623 78.85C66.8482 78.946 66.9195 79.0143 67.0054 79.1103C67.02 79.138 67.0346 79.1656 67.0622 79.151C67.1481 79.247 67.234 79.343 67.3199 79.439C67.3345 79.4666 67.349 79.4942 67.4058 79.5349C67.4771 79.6033 67.5208 79.6862 67.5921 79.7545C67.6067 79.7822 67.6358 79.8374 67.678 79.8505C67.7217 79.9334 67.7931 80.0017 67.8368 80.0846C67.8513 80.1123 67.8659 80.1399 67.8805 80.1676C67.9387 80.2781 67.9824 80.361 68.0683 80.457C68.0829 80.4846 68.0974 80.5122 68.112 80.5399C68.1557 80.6228 68.1848 80.6781 68.214 80.7333C68.2285 80.761 68.2431 80.7886 68.2577 80.8162C68.2868 80.8715 68.2883 80.9414 68.3174 80.9966C68.332 81.0243 68.3465 81.0519 68.3335 81.0941C68.3495 81.1916 68.3656 81.289 68.3671 81.3589C68.3816 81.3865 68.354 81.4011 68.3686 81.4287C68.3701 81.4985 68.3716 81.5684 68.3731 81.6382C68.36 81.6804 68.3746 81.708 68.3469 81.7226C68.3338 81.7648 68.3353 81.8346 68.2946 81.8914C68.2816 81.9336 68.2816 81.9336 68.2685 81.9758C68.2278 82.0326 68.174 82.1315 68.1333 82.1883Z" fill="#A05F4B"/>
</g>
<path d="M-7.55151 73.1399C17.9772 93.2226 27.1061 85.4495 27.1061 85.4495C32.5045 77.0532 -7.55151 73.1399 -7.55151 73.1399Z" fill="url(#paint0_linear)"/>
<path d="M28.9814 70.8675C32.1183 61.4183 -7.69788 67.3221 -7.69788 67.3221C21.9614 80.5355 28.9814 70.8675 28.9814 70.8675Z" fill="url(#paint1_linear)"/>
<path d="M-10.4245 85.2629C12.703 108.041 22.6334 101.509 22.6334 101.509C28.8603 93.6278 -10.4245 85.2629 -10.4245 85.2629Z" fill="url(#paint2_linear)"/>
<path d="M26.8298 57.1042C27.9246 47.2156 -9.77485 61.3113 -9.77485 61.3113C22.0624 68.0669 26.8298 57.1042 26.8298 57.1042Z" fill="url(#paint3_linear)"/>
<path d="M-15.7622 36.7493C9.13479 57.5351 23.5663 50.4438 23.5663 50.4438C29.0811 42.1728 -15.7622 36.7493 -15.7622 36.7493Z" fill="url(#paint4_linear)"/>
<path d="M35.896 5.49442C30.2518 33.4981 22.8016 44.9664 22.8016 44.9664C38.8655 49.3184 35.896 5.49442 35.896 5.49442Z" fill="url(#paint5_linear)"/>
<path d="M46.7227 17.1588C35.812 43.5133 26.3601 53.454 26.3601 53.454C41.2232 60.7884 46.7227 17.1588 46.7227 17.1588Z" fill="url(#paint6_linear)"/>
<path d="M53.8997 29.293C39.6617 53.9495 28.8083 62.506 28.8083 62.506C42.632 71.7392 53.8997 29.293 53.8997 29.293Z" fill="url(#paint7_linear)"/>
<path d="M44.71 71.2109C53.145 62.5644 57.8333 43.9701 57.8333 43.9701C52.8466 54.3192 48.1158 61.0451 41.7957 64.9268C32.1296 70.8636 30.2399 69.5823 29.1413 76.3224C28.4775 81.1413 36.6603 79.2664 44.71 71.2109Z" fill="url(#paint8_linear)"/>
<path d="M41.6921 90.4731C50.7047 82.5746 56.9515 64.4016 56.9515 64.4016C51.1363 74.2355 45.9353 80.5806 39.3914 83.9696C29.2687 89.1628 27.5044 87.7652 25.9266 94.3663C24.6627 99.0418 33.0603 97.9014 41.6921 90.4731Z" fill="url(#paint9_linear)"/>
<path d="M37.2367 109.318C48.7384 106.114 62.2129 92.2056 62.2129 92.2056C52.7707 98.6351 45.2548 102.109 37.977 102.443C26.6998 102.871 25.688 100.775 21.374 106.063C18.2069 109.82 26.2231 112.419 37.2367 109.318Z" fill="url(#paint10_linear)"/>
<path d="M-6.61491 2.45843C4.88805 38.2449 21.2517 44.3033 21.2517 44.3033C30.5859 40.776 -6.61491 2.45843 -6.61491 2.45843Z" fill="url(#paint11_linear)"/>
<g opacity="0.86">
<path d="M1.10649 136.55C0.725714 137.02 0.698696 137.745 1.16888 138.126C1.63906 138.507 2.36459 138.534 2.74537 138.064C2.87529 137.826 7.28766 133.147 12.6861 124.751C17.5738 117.062 24.2091 104.716 27.795 89.7131C32.6628 69.5513 30.7666 55.4343 21.0196 40.7828C20.6748 40.2856 19.9538 40.1377 19.4566 40.4824C19.2102 40.5943 19.0803 40.8317 19.0713 41.0735C18.9369 41.4318 18.9234 41.7945 19.1562 42.0454C28.4376 56.1952 30.3517 69.8285 25.6364 89.1484C18.7785 117.228 1.35734 136.317 1.10649 136.55Z" fill="#A8D8C5"/>
</g>
<path d="M9.64364 112.376C4.7837 147.872 17.0795 152.341 17.0795 152.341C28.1457 152.623 9.64364 112.376 9.64364 112.376Z" fill="url(#paint12_linear)"/>
<path d="M32.033 145.85C42.8596 143.65 15.1281 109.016 15.1281 109.016C18.9955 144.573 32.033 145.85 32.033 145.85Z" fill="url(#paint13_linear)"/>
<path d="M-3.63615 116.346C-12.5678 151.079 -0.668344 156.819 -0.668344 156.819C10.2327 158.444 -3.63615 116.346 -3.63615 116.346Z" fill="url(#paint14_linear)"/>
<path d="M44.0176 136.279C54.0345 131.798 19.6944 103.722 19.6944 103.722C30.8806 137.759 44.0176 136.279 44.0176 136.279Z" fill="url(#paint15_linear)"/>
<path d="M48.439 129.418C59.3972 130.047 39.6793 84.3503 39.6793 84.3503C33.7436 119.638 48.439 129.418 48.439 129.418Z" fill="url(#paint16_linear)"/>
<path d="M98.2038 116.166C68.4327 126.275 53.3021 125.612 53.3021 125.612C58.0474 143.316 98.2038 116.166 98.2038 116.166Z" fill="url(#paint17_linear)"/>
<path d="M93.0947 132.952C61.9489 137.308 47.257 133.613 47.257 133.613C48.4944 151.998 93.0947 132.952 93.0947 132.952Z" fill="url(#paint18_linear)"/>
<path d="M85.5877 146.455C54.1291 146.531 40.0136 140.988 40.0136 140.988C38.8401 159.381 85.5877 146.455 85.5877 146.455Z" fill="url(#paint19_linear)"/>
<path d="M40.5952 161.069C53.4028 164.303 73.8427 158.51 73.8427 158.51C61.2323 159.52 52.2231 158.738 45.0673 154.859C33.969 148.989 34.2635 146.419 27.1981 149.159C22.0306 151.096 28.2497 157.979 40.5952 161.069Z" fill="url(#paint20_linear)"/>
<path d="M53.8749 168.887C41.2063 168.865 32.2977 167.354 25.4015 163.049C14.8225 156.327 15.2325 153.793 8.08012 155.998C2.90525 157.553 8.59762 164.906 20.5034 168.999C33.0228 173.158 53.8749 168.887 53.8749 168.887Z" fill="url(#paint21_linear)"/>
<path d="M30.2382 189.401C18.8442 184.073 11.3556 178.822 7.04947 171.902C0.337475 161.316 1.75116 159.222 -5.61968 158.063C-10.9547 157.287 -8.94287 166.28 0.106943 175.06C9.51074 184.331 30.2382 189.401 30.2382 189.401Z" fill="url(#paint22_linear)"/>
<path d="M77.4049 73.9348C49.681 104.709 52.9978 123.742 52.9978 123.742C61.6279 130.617 77.4049 73.9348 77.4049 73.9348Z" fill="url(#paint23_linear)"/>
<path d="M-28.2344 160.263C-18.2004 160.604 -2.70955 160.112 13.5368 155.165C35.3405 148.656 47.7439 138.962 56.3603 121.495C56.692 120.838 56.4101 120.117 55.8685 119.821C55.6375 119.749 55.4065 119.677 55.1394 119.72C54.7568 119.728 54.4177 120.002 54.3096 120.349C46.0609 137.043 34.1121 146.499 13.0301 152.726C-17.716 161.896 -45.6193 155.855 -45.8503 155.783C-46.5434 155.567 -47.1856 156 -47.2863 156.73C-47.5025 157.423 -47.069 158.065 -46.3399 158.166C-46.1449 158.353 -39.1131 159.786 -28.2344 160.263Z" fill="url(#paint24_linear)"/>
</g>
<defs>
<linearGradient id="paint0_linear" x1="9.80454" y1="84.5365" x2="10.2043" y2="73.801" gradientUnits="userSpaceOnUse">
<stop stop-color="#A7D7C5"/>
<stop offset="1" stop-color="#E7F1F0"/>
</linearGradient>
<linearGradient id="paint1_linear" x1="10.5792" y1="72.6574" x2="10.8535" y2="65.2917" gradientUnits="userSpaceOnUse">
<stop stop-color="#A7D7C5"/>
<stop offset="1" stop-color="#E7F1F0"/>
</linearGradient>
<linearGradient id="paint2_linear" x1="6.18219" y1="99.4343" x2="6.68615" y2="85.9" gradientUnits="userSpaceOnUse">
<stop stop-color="#A7D7C5"/>
<stop offset="1" stop-color="#E7F1F0"/>
</linearGradient>
<linearGradient id="paint3_linear" x1="8.43155" y1="61.9253" x2="8.75978" y2="53.1102" gradientUnits="userSpaceOnUse">
<stop stop-color="#A7D7C5"/>
<stop offset="1" stop-color="#E7F1F0"/>
</linearGradient>
<linearGradient id="paint4_linear" x1="3.90928" y1="49.0282" x2="4.33863" y2="37.4977" gradientUnits="userSpaceOnUse">
<stop stop-color="#A7D7C5"/>
<stop offset="1" stop-color="#E7F1F0"/>
</linearGradient>
<linearGradient id="paint5_linear" x1="29.1304" y1="39.1873" x2="30.3926" y2="5.28949" gradientUnits="userSpaceOnUse">
<stop stop-color="#A7D7C5"/>
<stop offset="1" stop-color="#E7F1F0"/>
</linearGradient>
<linearGradient id="paint6_linear" x1="36.0441" y1="48.6602" x2="37.2303" y2="16.8053" gradientUnits="userSpaceOnUse">
<stop stop-color="#A7D7C5"/>
<stop offset="1" stop-color="#E7F1F0"/>
</linearGradient>
<linearGradient id="paint7_linear" x1="40.8796" y1="58.6388" x2="41.9889" y2="28.8495" gradientUnits="userSpaceOnUse">
<stop stop-color="#A7D7C5"/>
<stop offset="1" stop-color="#E7F1F0"/>
</linearGradient>
<linearGradient id="paint8_linear" x1="42.9689" y1="73.7917" x2="44.0984" y2="43.4586" gradientUnits="userSpaceOnUse">
<stop stop-color="#A7D7C5"/>
<stop offset="1" stop-color="#E7F1F0"/>
</linearGradient>
<linearGradient id="paint9_linear" x1="40.9073" y1="92.3716" x2="41.9696" y2="63.8437" gradientUnits="userSpaceOnUse">
<stop stop-color="#A7D7C5"/>
<stop offset="1" stop-color="#E7F1F0"/>
</linearGradient>
<linearGradient id="paint10_linear" x1="41.1389" y1="108.124" x2="41.76" y2="91.4441" gradientUnits="userSpaceOnUse">
<stop stop-color="#A7D7C5"/>
<stop offset="1" stop-color="#E7F1F0"/>
</linearGradient>
<linearGradient id="paint11_linear" x1="7.50308" y1="37.4518" x2="8.78474" y2="3.03185" gradientUnits="userSpaceOnUse">
<stop stop-color="#A7D7C5"/>
<stop offset="1" stop-color="#E7F1F0"/>
</linearGradient>
<linearGradient id="paint12_linear" x1="19.0151" y1="149.415" x2="-1.92221" y2="126.731" gradientUnits="userSpaceOnUse">
<stop stop-color="#74B49B"/>
<stop offset="1" stop-color="#5C8D89"/>
</linearGradient>
<linearGradient id="paint13_linear" x1="32.6953" y1="143.147" x2="15.1294" y2="112.577" gradientUnits="userSpaceOnUse">
<stop stop-color="#74B49B"/>
<stop offset="1" stop-color="#5C8D89"/>
</linearGradient>
<linearGradient id="paint14_linear" x1="1.89923" y1="153.912" x2="-18.0942" y2="136.114" gradientUnits="userSpaceOnUse">
<stop stop-color="#74B49B"/>
<stop offset="1" stop-color="#5C8D89"/>
</linearGradient>
<linearGradient id="paint15_linear" x1="43.5902" y1="134.166" x2="32.7118" y2="102.378" gradientUnits="userSpaceOnUse">
<stop stop-color="#74B49B"/>
<stop offset="1" stop-color="#5C8D89"/>
</linearGradient>
<linearGradient id="paint16_linear" x1="50.1888" y1="125.995" x2="26.6522" y2="100.525" gradientUnits="userSpaceOnUse">
<stop stop-color="#74B49B"/>
<stop offset="1" stop-color="#5C8D89"/>
</linearGradient>
<linearGradient id="paint17_linear" x1="88.7696" y1="138.007" x2="78.1764" y2="102.253" gradientUnits="userSpaceOnUse">
<stop stop-color="#74B49B"/>
<stop offset="1" stop-color="#5C8D89"/>
</linearGradient>
<linearGradient id="paint18_linear" x1="85.2576" y1="148.936" x2="81.4067" y2="118.837" gradientUnits="userSpaceOnUse">
<stop stop-color="#74B49B"/>
<stop offset="1" stop-color="#5C8D89"/>
</linearGradient>
<linearGradient id="paint19_linear" x1="78.9548" y1="158.248" x2="78.5083" y2="134.429" gradientUnits="userSpaceOnUse">
<stop stop-color="#74B49B"/>
<stop offset="1" stop-color="#5C8D89"/>
</linearGradient>
<linearGradient id="paint20_linear" x1="67.5976" y1="168.35" x2="68.5268" y2="147.723" gradientUnits="userSpaceOnUse">
<stop stop-color="#74B49B"/>
<stop offset="1" stop-color="#5C8D89"/>
</linearGradient>
<linearGradient id="paint21_linear" x1="48.2742" y1="176.591" x2="49.6661" y2="158.31" gradientUnits="userSpaceOnUse">
<stop stop-color="#74B49B"/>
<stop offset="1" stop-color="#5C8D89"/>
</linearGradient>
<linearGradient id="paint22_linear" x1="28.0175" y1="186.913" x2="24.5519" y2="156.251" gradientUnits="userSpaceOnUse">
<stop stop-color="#74B49B"/>
<stop offset="1" stop-color="#5C8D89"/>
</linearGradient>
<linearGradient id="paint23_linear" x1="62.0323" y1="121.362" x2="46.3254" y2="112.946" gradientUnits="userSpaceOnUse">
<stop stop-color="#74B49B"/>
<stop offset="1" stop-color="#5C8D89"/>
</linearGradient>
<linearGradient id="paint24_linear" x1="33.437" y1="176.481" x2="1.44015" y2="91.3398" gradientUnits="userSpaceOnUse">
<stop stop-color="#74B49B"/>
<stop offset="1" stop-color="#5C8D89"/>
</linearGradient>
<clipPath id="clip0">
<rect width="197.36" height="170.981" fill="white" transform="translate(118.224 178.207) rotate(-177.868)"/>
</clipPath>
</defs>
</svg>
