<svg width="66" height="202" viewBox="0 0 66 202" fill="none" xmlns="http://www.w3.org/2000/svg">
<g opacity="0.8">
<path d="M42.5989 45.9274C41.5529 45.8323 26.7193 43.1699 25.7684 43.0748C21.2993 42.6944 19.4927 42.4092 19.4927 42.4092C19.4927 42.4092 35.9428 45.9274 40.6021 48.2095C47.1631 51.5376 55.4357 56.7674 59.7146 60.0003C66.9413 65.5154 74.5483 71.7912 75.9746 77.4964C76.2599 78.4473 76.45 79.5883 76.6402 80.8245C78.3517 80.4441 80.1584 80.1589 81.87 79.7785C80.7289 73.6929 76.6402 63.2333 70.9349 59.7151C63.7083 55.1509 48.5894 46.4028 42.5989 45.9274Z" fill="url(#paint0_linear)"/>
<path d="M55.7207 53.059C48.3039 49.5408 42.4085 47.4489 24.0566 43.3601C24.0566 43.3601 35.5622 46.2127 43.8348 50.5867C50.8713 54.2952 54.3895 59.1446 57.7176 61.712C62.6621 65.5155 68.1772 70.1747 71.6954 74.6438C73.407 76.8309 74.7382 79.0179 75.7842 81.0147C76.4498 80.8245 77.2105 80.7294 77.8761 80.5393C77.781 76.5456 77.3056 71.8863 75.8793 69.5091C73.1217 64.9449 63.1375 56.5772 55.7207 53.059Z" fill="url(#paint1_linear)"/>
<path d="M50.8716 55.5309C52.7733 57.0523 56.767 61.2361 58.8589 62.8526C61.046 64.5642 71.1252 73.9778 73.0269 76.4501C73.6925 77.3059 74.6434 79.0175 75.4992 81.1094C75.6894 81.1094 75.8796 81.0143 75.9747 81.0143C75.1189 79.2076 74.3582 77.7813 74.0729 77.2108C73.027 75.4992 71.0301 73.027 68.4627 70.4596C65.9905 67.7972 50.8716 55.5309 50.8716 55.5309Z" fill="url(#paint2_linear)"/>
<path d="M78.0666 73.0268C68.9382 66.1805 52.9636 63.6132 45.5467 63.423C39.8415 63.2328 33.3755 64.1837 28.3359 66.1805C21.2994 68.9381 24.5324 70.2693 24.5324 70.2693C24.5324 70.2693 47.3534 62.4721 63.5182 72.8366C79.7782 83.2012 83.5816 84.8176 88.0507 96.2281C92.6149 107.639 95.4676 127.227 95.4676 127.227C95.4676 127.227 101.743 141.965 103.455 131.601C103.455 131.601 101.268 111.062 97.1792 100.697C93.0904 89.6671 90.4279 82.2503 78.0666 73.0268Z" fill="url(#paint3_linear)"/>
<path d="M76.1649 79.2077C71.4105 76.0698 61.9969 67.2267 50.111 65.8004C38.2251 64.4692 23.7717 66.466 18.637 70.3646C13.5023 74.2631 5.41992 82.0603 5.41992 82.0603C5.41992 82.0603 16.7353 72.3614 28.2409 70.0793C39.7465 67.7972 55.2457 66.8463 69.8891 78.0666C84.5326 89.287 87.2901 95.7529 90.6182 105.452C94.0413 115.151 94.1364 125.515 94.1364 125.515L99.5564 131.981C99.5564 131.981 97.1792 109.16 92.615 99.8416C88.1459 90.5231 80.9193 82.3456 76.1649 79.2077Z" fill="url(#paint4_linear)"/>
<path d="M38.1298 76.8303C27.1948 79.8731 15.404 91.0934 10.7447 96.8937C7.13135 101.268 3.99346 107.068 2.47206 112.203C0.380137 119.429 3.42293 117.718 3.42293 117.718C3.42293 117.718 11.0299 94.8969 29.0965 88.2408C47.1631 81.6797 50.7764 79.5878 62.5673 82.9159C74.3581 86.2439 91.664 95.8478 91.664 95.8478C91.664 95.8478 107.163 99.7463 100.032 92.1394C100.032 92.1394 82.3455 81.3945 71.6006 78.3517C60.4754 75.0236 53.0585 72.6464 38.1298 76.8303Z" fill="url(#paint5_linear)"/>
<path d="M37.1791 86.434C54.9605 81.5846 61.8068 83.3912 71.6008 86.6242C81.3948 89.8572 89.6674 95.9428 89.6674 95.9428L98.1302 95.5624C98.1302 95.5624 78.5422 83.5814 68.3678 81.5846C58.1935 79.4926 47.2584 80.2533 41.9335 82.1551C36.6086 84.0568 23.7718 86.0537 15.4992 94.7066C7.22663 103.36 0.0950874 116.006 0 122.472C0 128.938 1.23612 140.063 1.23612 140.063C1.23612 140.063 0.380338 125.23 5.51506 114.675C10.7449 104.12 19.3978 91.2835 37.1791 86.434Z" fill="url(#paint6_linear)"/>
<path d="M61.9971 130.84C54.5802 145.864 50.6816 183.423 50.6816 183.423C55.2458 157.084 83.4868 111.823 83.4868 111.823C79.0177 108.495 79.8735 104.121 79.8735 104.121C79.8735 104.121 69.509 115.816 61.9971 130.84Z" fill="url(#paint7_linear)"/>
<path d="M83.0113 111.347C57.0524 141.015 49.5405 186.752 49.5405 186.752C49.5405 186.752 68.7482 145.674 74.4534 134.168C80.1587 122.663 95.9432 110.492 92.1397 111.538C88.3362 112.488 83.0113 111.347 83.0113 111.347Z" fill="url(#paint8_linear)"/>
<path d="M68.2727 186.371C68.2727 186.371 69.4137 162.409 68.5579 156.323C67.7021 150.143 63.0428 137.02 68.2727 128.938C68.2727 128.938 64.3741 127.892 62.5674 132.837C60.6657 137.781 60.9509 143.391 63.4232 149.382C65.8955 155.372 67.4169 165.547 67.2267 169.826C67.1316 174.009 68.2727 186.371 68.2727 186.371Z" fill="url(#paint9_linear)"/>
<path d="M69.7941 176.101C70.5548 171.918 72.0761 166.402 72.5516 161.173C73.5975 148.716 73.0271 140.729 72.1713 134.453C71.2204 128.177 71.5056 121.046 71.5056 121.046C70.6499 123.138 71.4105 122.092 67.512 129.984C63.6134 137.876 66.6562 151.854 68.1776 157.559C69.6039 163.36 68.2727 185.705 68.2727 185.705C68.2727 185.705 68.653 182.092 69.7941 176.101Z" fill="url(#paint10_linear)"/>
<path d="M77.306 115.055C75.9748 115.055 73.978 115.055 72.1713 117.908C70.745 120.19 70.4597 124.754 70.9352 127.512C71.2204 129.318 72.4566 141.299 72.5517 144.818C72.6468 149.192 73.2173 157.464 71.5057 167.448C70.8401 171.062 68.4629 183.423 68.4629 183.423C68.3678 180.285 67.1317 166.783 66.9415 162.789C66.6563 158.891 64.8496 153.09 64.8496 153.09C64.8496 153.09 65.6103 156.038 66.0857 158.225C66.5612 160.412 67.3219 168.209 67.417 171.157C67.417 174.105 68.4629 186.276 68.4629 186.276C68.4629 186.276 69.0334 182.662 72.0762 167.163C75.119 151.759 72.6467 136.26 72.3615 131.125C71.9811 125.61 71.3155 123.328 72.2664 119.715C73.2173 115.055 77.306 115.055 77.306 115.055Z" fill="url(#paint11_linear)"/>
<path d="M55.0556 87.6705C51.1571 91.9494 50.7767 94.1364 49.5405 100.412C49.5405 100.412 53.5342 91.9494 90.9987 113.724C90.9987 113.724 85.1983 103.93 81.3948 98.8908C77.5913 93.9462 58.9542 83.3915 55.0556 87.6705Z" fill="url(#paint12_linear)"/>
<path d="M49.921 98.7957L49.2554 103.075C49.2554 103.075 67.5122 108.4 76.7356 110.682C85.9591 113.059 90.8086 112.964 90.8086 112.964C90.8086 112.964 81.3949 107.449 72.3616 103.265C61.4265 98.2252 52.8687 97.5596 49.921 98.7957Z" fill="url(#paint13_linear)"/>
<path d="M36.5136 105.452C32.8052 111.252 31.5691 118.384 33.0905 126.752C34.6119 135.119 33.7561 148.336 32.4248 153.756C31.0936 159.176 29.1919 175.246 29.1919 175.246C29.1919 175.246 37.1792 145.103 37.7498 137.021C38.3203 128.939 35.9431 110.967 44.7862 102.029C44.8813 102.029 40.3171 99.6517 36.5136 105.452Z" fill="url(#paint14_linear)"/>
<path d="M34.041 162.599C36.228 157.56 39.5561 150.809 41.5529 144.248C46.3073 128.653 47.7336 118.384 48.3041 110.111C48.8746 101.839 51.0617 92.9004 51.0617 92.9004C49.3501 95.3727 50.6813 94.2316 43.6448 103.17C36.6084 112.108 36.7034 130.745 36.8936 138.447C37.1789 146.149 29.2866 174.295 29.2866 174.295C29.2866 174.295 30.9031 169.921 34.041 162.599Z" fill="url(#paint15_linear)"/>
<path d="M29.2866 175.246C29.2866 175.246 30.9982 170.777 39.0806 151.95C47.163 133.122 48.3041 112.869 49.1599 106.117C50.2059 98.9859 49.9206 95.848 52.1076 91.474C54.9602 85.6737 60.19 86.8148 60.19 86.8148C58.4784 86.4344 55.9111 85.8639 52.8683 89.0018C50.396 91.5691 48.8746 97.2744 48.6845 100.888C48.5894 103.36 46.8778 118.859 46.022 123.328C44.881 128.938 43.3596 139.588 38.5101 151.855C36.7034 156.324 30.2375 171.443 30.2375 171.443C30.9982 167.449 33.0901 149.858 33.8508 144.818C34.6115 139.683 33.8508 131.886 33.8508 131.886C33.8508 131.886 34.041 135.88 34.041 138.732C34.041 141.585 32.995 151.759 32.1392 155.563C31.2835 159.462 29.2866 175.246 29.2866 175.246Z" fill="url(#paint16_linear)"/>
<path d="M55.2459 81.965C55.2459 81.965 46.0225 87.6702 41.6485 87.0997C38.0351 86.6242 35.0874 93.1853 33.7562 96.0379C31.1889 101.648 29.6674 108.399 32.1397 117.623C34.5169 126.276 37.9401 131.696 47.2586 145.388C47.2586 145.388 45.7372 140.349 42.0288 130.935C39.8418 125.42 38.7008 121.711 37.9401 117.813C36.6089 111.062 37.4646 104.596 39.5565 98.4151C42.1239 90.9032 53.4393 83.2011 55.2459 81.965Z" fill="url(#paint17_linear)"/>
<path d="M63.0425 89.0965C78.0663 88.526 86.3389 108.399 86.3389 108.399L95.8477 101.838C95.8477 101.838 83.8667 81.1092 66.846 79.1124C52.2026 77.3057 32.1391 92.3295 38.1296 118.669C38.1296 118.669 33.1851 90.1425 63.0425 89.0965Z" fill="url(#paint18_linear)"/>
<path d="M57.5277 80.0632C57.5277 80.0632 53.4389 81.1092 49.2551 84.0569C46.4976 85.9586 42.599 89.1916 39.6513 95.8477C36.7987 102.314 35.7527 111.062 38.0348 120C38.9857 123.708 41.3629 129.509 43.0744 134.168C44.9762 139.303 46.4025 143.582 46.4025 143.582C46.4025 143.582 40.1267 135.404 36.2281 127.417C32.3295 119.334 31.0934 115.246 31.4738 107.163C32.1394 94.7067 38.4152 88.3358 38.4152 88.3358C36.4183 90.3327 32.6148 94.5165 30.9033 105.261C29.1917 116.006 34.992 125.895 37.179 130.079C39.366 134.263 47.1632 145.388 47.1632 145.388C46.973 142.25 40.0316 125.8 38.5102 120.285C36.9888 114.675 35.8478 107.543 40.1267 96.4183C44.4057 85.293 57.5277 80.0632 57.5277 80.0632Z" fill="url(#paint19_linear)"/>
<path d="M45.8319 147.766C48.3042 136.926 51.347 125.23 56.9571 120.666C62.5673 116.102 73.7876 110.111 73.7876 110.111C73.7876 110.111 65.0396 109.16 60.2852 110.777C55.6259 112.298 40.9825 125.135 39.6512 135.5C38.32 145.864 36.3231 167.259 38.7954 174.2C39.2709 175.436 43.8351 193.313 44.2154 194.359C46.1172 199.588 46.6877 201.68 46.6877 201.68C46.6877 201.68 42.1235 181.522 42.3137 175.151C42.694 166.023 44.4056 154.137 45.8319 147.766Z" fill="url(#paint20_linear)"/>
<path d="M48.7795 149.097C50.491 141.585 52.8682 133.122 56.1012 126.846C60.0949 119.144 64.9443 114.485 66.9412 113.629C66.9412 113.629 51.9174 119.525 48.209 124.945C44.5006 130.27 40.3167 145.769 40.2216 155.848C40.1265 165.927 40.7921 173.629 45.6416 196.165C45.6416 196.165 42.884 181.807 43.5497 170.396C44.1202 160.507 47.6384 154.041 48.7795 149.097Z" fill="url(#paint21_linear)"/>
<path d="M57.147 124.089C57.147 124.089 69.9838 113.154 76.3546 113.059C82.7255 113.059 87.7651 115.816 87.7651 115.816L90.1423 110.967C90.1423 110.967 84.9125 107.544 77.8761 106.973C70.8396 106.403 62.1866 117.147 57.147 124.089Z" fill="url(#paint22_linear)"/>
<path d="M57.6227 122.948C56.1964 125.04 54.4848 128.463 52.8683 132.647C51.2518 136.831 45.3564 159.937 45.3564 159.937C46.1171 156.989 48.6845 150.523 49.4452 147.29C50.2059 144.057 55.5308 127.892 57.3374 124.564C59.1441 121.236 67.6069 111.823 73.3121 108.875C77.9714 106.498 83.3914 108.114 83.3914 108.114C78.1616 106.022 75.7844 106.973 72.4563 108.4C67.4167 110.587 59.049 120.856 57.6227 122.948Z" fill="url(#paint23_linear)"/>
<path d="M45.1661 130.84C43.3594 134.929 40.697 145.769 40.2215 151.95C40.0314 154.802 39.9363 156.799 40.2215 161.458C40.2215 161.458 40.5068 156.133 40.6019 154.707C40.9823 143.677 47.258 127.892 48.304 125.705C49.9205 122.472 55.1503 119.144 55.1503 119.144C50.9664 121.331 50.0155 122.568 48.7794 123.994C47.6384 125.42 47.0678 126.751 45.1661 130.84Z" fill="url(#paint24_linear)"/>
</g>
<defs>
<linearGradient id="paint0_linear" x1="23.3913" y1="46.0106" x2="53.2437" y2="93.1619" gradientUnits="userSpaceOnUse">
<stop stop-color="#74B49B"/>
<stop offset="1" stop-color="#5C8D89"/>
</linearGradient>
<linearGradient id="paint1_linear" x1="27.4204" y1="46.8902" x2="58.1107" y2="89.5594" gradientUnits="userSpaceOnUse">
<stop stop-color="#74B49B"/>
<stop offset="1" stop-color="#5C8D89"/>
</linearGradient>
<linearGradient id="paint2_linear" x1="52.4405" y1="57.9289" x2="74.4068" y2="78.8989" gradientUnits="userSpaceOnUse">
<stop stop-color="#74B49B"/>
<stop offset="1" stop-color="#5C8D89"/>
</linearGradient>
<linearGradient id="paint3_linear" x1="28.77" y1="70.1393" x2="90.4053" y2="136.572" gradientUnits="userSpaceOnUse">
<stop stop-color="#74B49B"/>
<stop offset="1" stop-color="#5C8D89"/>
</linearGradient>
<linearGradient id="paint4_linear" x1="11.3035" y1="71.6318" x2="65.7672" y2="146.523" gradientUnits="userSpaceOnUse">
<stop stop-color="#74B49B"/>
<stop offset="1" stop-color="#5C8D89"/>
</linearGradient>
<linearGradient id="paint5_linear" x1="7.99841" y1="78.6544" x2="35.6266" y2="140.827" gradientUnits="userSpaceOnUse">
<stop stop-color="#74B49B"/>
<stop offset="1" stop-color="#5C8D89"/>
</linearGradient>
<linearGradient id="paint6_linear" x1="6.13314" y1="85.9314" x2="52.3166" y2="159.735" gradientUnits="userSpaceOnUse">
<stop stop-color="#74B49B"/>
<stop offset="1" stop-color="#5C8D89"/>
</linearGradient>
<linearGradient id="paint7_linear" x1="52.732" y1="111.555" x2="99.9532" y2="130.556" gradientUnits="userSpaceOnUse">
<stop stop-color="#74B49B"/>
<stop offset="1" stop-color="#5C8D89"/>
</linearGradient>
<linearGradient id="paint8_linear" x1="52.2395" y1="118.417" x2="107.359" y2="149.123" gradientUnits="userSpaceOnUse">
<stop stop-color="#74B49B"/>
<stop offset="1" stop-color="#5C8D89"/>
</linearGradient>
<linearGradient id="paint9_linear" x1="61.799" y1="134.239" x2="74.2224" y2="135.824" gradientUnits="userSpaceOnUse">
<stop stop-color="#74B49B"/>
<stop offset="1" stop-color="#5C8D89"/>
</linearGradient>
<linearGradient id="paint10_linear" x1="66.0749" y1="127.108" x2="78.4794" y2="128.509" gradientUnits="userSpaceOnUse">
<stop stop-color="#74B49B"/>
<stop offset="1" stop-color="#5C8D89"/>
</linearGradient>
<linearGradient id="paint11_linear" x1="65.6281" y1="121.732" x2="85.8756" y2="125.177" gradientUnits="userSpaceOnUse">
<stop stop-color="#74B49B"/>
<stop offset="1" stop-color="#5C8D89"/>
</linearGradient>
<linearGradient id="paint12_linear" x1="52.1317" y1="89.2081" x2="73.6508" y2="121.287" gradientUnits="userSpaceOnUse">
<stop stop-color="#74B49B"/>
<stop offset="1" stop-color="#5C8D89"/>
</linearGradient>
<linearGradient id="paint13_linear" x1="51.8524" y1="99.6374" x2="59.9762" y2="121.967" gradientUnits="userSpaceOnUse">
<stop stop-color="#74B49B"/>
<stop offset="1" stop-color="#5C8D89"/>
</linearGradient>
<linearGradient id="paint14_linear" x1="30.1666" y1="108.456" x2="55.1905" y2="113.607" gradientUnits="userSpaceOnUse">
<stop stop-color="#74B49B"/>
<stop offset="1" stop-color="#5C8D89"/>
</linearGradient>
<linearGradient id="paint15_linear" x1="30.6476" y1="100.531" x2="64.7568" y2="109.407" gradientUnits="userSpaceOnUse">
<stop stop-color="#74B49B"/>
<stop offset="1" stop-color="#5C8D89"/>
</linearGradient>
<linearGradient id="paint16_linear" x1="31.2181" y1="94.8307" x2="77.5833" y2="110.538" gradientUnits="userSpaceOnUse">
<stop stop-color="#74B49B"/>
<stop offset="1" stop-color="#5C8D89"/>
</linearGradient>
<linearGradient id="paint17_linear" x1="32.4073" y1="87.9109" x2="68.1606" y2="101.269" gradientUnits="userSpaceOnUse">
<stop stop-color="#74B49B"/>
<stop offset="1" stop-color="#5C8D89"/>
</linearGradient>
<linearGradient id="paint18_linear" x1="40.7183" y1="82.6882" x2="72.6951" y2="128.758" gradientUnits="userSpaceOnUse">
<stop stop-color="#74B49B"/>
<stop offset="1" stop-color="#5C8D89"/>
</linearGradient>
<linearGradient id="paint19_linear" x1="32.2753" y1="86.1875" x2="71.0829" y2="101.753" gradientUnits="userSpaceOnUse">
<stop stop-color="#74B49B"/>
<stop offset="1" stop-color="#5C8D89"/>
</linearGradient>
<linearGradient id="paint20_linear" x1="39.882" y1="118.444" x2="92.6313" y2="138.648" gradientUnits="userSpaceOnUse">
<stop stop-color="#74B49B"/>
<stop offset="1" stop-color="#5C8D89"/>
</linearGradient>
<linearGradient id="paint21_linear" x1="41.8839" y1="121.367" x2="82.5512" y2="134.177" gradientUnits="userSpaceOnUse">
<stop stop-color="#74B49B"/>
<stop offset="1" stop-color="#5C8D89"/>
</linearGradient>
<linearGradient id="paint22_linear" x1="59.2092" y1="108.558" x2="71.4523" y2="131.487" gradientUnits="userSpaceOnUse">
<stop stop-color="#74B49B"/>
<stop offset="1" stop-color="#5C8D89"/>
</linearGradient>
<linearGradient id="paint23_linear" x1="47.7336" y1="111.871" x2="90.5254" y2="141.721" gradientUnits="userSpaceOnUse">
<stop stop-color="#74B49B"/>
<stop offset="1" stop-color="#5C8D89"/>
</linearGradient>
<linearGradient id="paint24_linear" x1="40.9858" y1="123.111" x2="63.5352" y2="130.943" gradientUnits="userSpaceOnUse">
<stop stop-color="#74B49B"/>
<stop offset="1" stop-color="#5C8D89"/>
</linearGradient>
</defs>
</svg>
