<svg width="30" height="30" viewBox="0 0 30 30" fill="none" xmlns="http://www.w3.org/2000/svg">
<path d="M24.1964 2.90054C23.7027 2.43927 23.2236 2.1688 22.5341 2.14473C16.6472 1.59663 10.7574 1.01036 4.87045 0.462257C3.21686 0.319938 1.66845 0.0544261 0.000202865 0.220306C0.449942 1.60618 1.12466 2.93647 1.7234 4.27256C5.21367 11.9515 8.92309 19.4985 12.8925 26.9489C13.3394 27.7976 13.8214 28.6052 14.3033 29.4129C19.7647 22.3933 24.6272 15.0356 29.7672 7.81029C27.9239 6.18546 26.0426 4.56353 24.1964 2.90054ZM22.8346 5.0774C24.0178 5.56274 24.9205 6.37661 25.7238 7.39C23.3193 7.91923 20.9731 8.71269 18.5978 9.12453C19.8631 7.68436 21.1955 6.1239 22.8346 5.0774ZM13.5416 23.4447C10.5711 17.5685 7.71166 11.6454 4.77917 5.76635C4.63898 5.4316 4.45789 5.06159 4.3177 4.72684C7.67726 6.69641 10.806 9.14424 14.0282 11.3162C14.0744 15.4199 13.7642 19.3589 13.5416 23.4447ZM12.0333 7.20797C10.0555 5.82372 8.03984 4.44238 6.2725 2.81174C10.8652 2.92136 15.4608 3.56815 20.0388 3.98598C18.9343 5.52902 17.5814 6.82234 16.1906 8.11857C15.7231 8.49976 15.3724 8.91041 14.7676 8.99501C13.7773 8.53331 12.9184 7.79287 12.0333 7.20797ZM15.984 23.4115C15.6397 19.9064 16.169 16.3346 16.3185 12.7917C16.339 12.0609 16.6312 11.885 17.3061 11.7183C20.0116 11.1276 22.6616 10.311 25.3729 9.79668C22.4039 14.4378 19.1545 18.9085 15.984 23.4115Z" fill="url(#paint0_linear)"/>
<defs>
<linearGradient id="paint0_linear" x1="2.02934" y1="2.90209" x2="29.7137" y2="25.1431" gradientUnits="userSpaceOnUse">
<stop stop-color="#FF9E2C"/>
<stop offset="1" stop-color="#F07129"/>
</linearGradient>
</defs>
</svg>
