<svg width="87" height="78" viewBox="0 0 87 78" fill="none" xmlns="http://www.w3.org/2000/svg">
<g opacity="0.8">
<path d="M6.10265 58.2798C3.85479 54.7567 0.796902 47.3599 8.43906 40.6319C18.9867 31.3349 26.1833 48.6366 26.1833 48.6366L25.4293 49.0605C13.043 40.8922 9.04384 53.4695 8.02959 58.4973L6.10265 58.2798Z" fill="#FFF68E"/>
<path d="M43.6486 23.3837C43.6486 23.3837 50.294 24.4861 56.2862 27.5084L56.2633 28.9403C41.9783 26.5952 39.644 28.4884 43.3841 32.1598C54.4786 43.2343 49.672 43.9671 49.672 43.9671L35.1617 40.124C35.225 40.0627 20.7209 20.2159 43.6486 23.3837Z" fill="#FEF36C"/>
<path d="M3.32138 25.7298C1.96594 20.9133 1.2963 16.0454 1.31049 11.2507C1.35815 8.26245 2.08201 1.92229 6.33227 0.931462C11.9581 -0.411061 13.8096 4.53792 13.8096 4.53792C13.9262 5.03795 14.0427 5.53798 14.2216 6.039C21.0047 29.7481 43.4324 44.7396 67.0611 42.9992C71.3597 42.8809 84.6579 40.7267 85.3908 45.5333C86.0644 50.1521 80.4531 54.4839 80.0123 54.7882C75.9863 57.3394 71.4701 59.3846 66.6526 60.8023C39.5016 68.6514 11.1072 52.9421 3.32138 25.7298Z" fill="#FFCD00"/>
<path d="M8.32104 16.78C6.7858 11.5247 6.18539 6.222 6.33105 0.99352C11.9559 -0.286748 13.8084 4.59998 13.8084 4.59998C13.9249 5.10001 14.0415 5.60004 14.2203 6.10106C14.4565 6.91436 14.6936 7.66541 14.9919 8.4797C15.0502 8.72971 15.1708 8.98071 15.2913 9.23172C15.4701 9.73274 15.6479 10.296 15.889 10.798C16.0086 11.1113 16.1291 11.3623 16.2486 11.6756C16.4285 12.1143 16.6073 12.6154 16.8494 13.0551C16.9689 13.3684 17.1507 13.6826 17.2713 13.9337C17.4511 14.3724 17.6932 14.8122 17.9352 15.252C18.0548 15.5652 18.2376 15.8172 18.3571 16.1305C18.5992 16.5702 18.8413 17.01 19.0843 17.3875C19.2671 17.6395 19.3867 17.9528 19.5695 18.2048C19.8738 18.6455 20.1149 19.1475 20.4192 19.5883C20.5407 19.7771 20.6613 20.0281 20.8451 20.2178C21.2709 20.8473 21.6958 21.5391 22.1849 22.1073C22.3074 22.2338 22.429 22.4226 22.4892 22.5481C22.8548 23.0521 23.2214 23.4938 23.587 23.9978C23.7698 24.2498 23.9526 24.5018 24.1986 24.6926C24.504 25.0711 24.8103 25.3873 25.1156 25.7658C25.3606 26.0188 25.5434 26.2708 25.7885 26.5238C26.0948 26.84 26.4011 27.1563 26.7074 27.4725C26.9525 27.7255 27.1975 27.9785 27.4426 28.2315C27.7489 28.5478 28.0562 28.8017 28.3625 29.118C28.6076 29.371 28.9149 29.625 29.1599 29.878C29.4672 30.132 29.7735 30.4482 30.0809 30.7022C30.3259 30.9552 30.6342 31.1469 30.8792 31.3999C31.1866 31.6539 31.5551 31.9711 31.8625 32.2251C32.1085 32.4158 32.4158 32.6698 32.6618 32.8606C33.2152 33.3053 33.8308 33.751 34.4474 34.1345C34.7557 34.3262 35.063 34.5802 35.3713 34.7719C35.6796 34.9637 35.9869 35.2176 36.3575 35.4104C36.728 35.6031 37.0353 35.8571 37.4059 36.0498C37.7142 36.2415 38.0225 36.4333 38.3308 36.625C38.7013 36.8177 39.0719 37.0105 39.4425 37.2032C39.7507 37.3949 40.06 37.5244 40.3683 37.7161C40.7389 37.9088 41.1094 38.1016 41.48 38.2943C41.7893 38.4238 42.0986 38.5532 42.4069 38.745C42.7774 38.9377 43.2103 39.1314 43.5818 39.2619C43.8911 39.3913 44.1381 39.5198 44.4484 39.587C44.8812 39.7808 45.315 39.9122 45.6856 40.105C45.9336 40.1712 46.1807 40.2997 46.4287 40.3659C48.0384 40.952 49.7123 41.4146 51.3863 41.8772C51.6343 41.9434 51.8824 42.0097 52.1304 42.0759C52.6265 42.2083 53.0612 42.2775 53.5583 42.3477C53.8063 42.414 54.1166 42.4812 54.3656 42.4852C54.8627 42.5553 55.2975 42.6246 55.7946 42.6948C56.1048 42.762 56.3538 42.7659 56.6641 42.8332C57.1612 42.9034 57.596 42.9726 58.094 42.9805C58.343 42.9845 58.6533 43.0517 58.9646 43.0567C59.4617 43.1269 59.9597 43.1348 60.4568 43.205C60.7058 43.209 60.9548 43.213 61.2038 43.2169C61.7019 43.2249 62.2612 43.2961 62.7592 43.304C62.8837 43.306 63.0083 43.308 63.1328 43.31C64.5024 43.3318 65.873 43.2914 67.2446 43.1887C71.5432 43.0705 84.8414 40.9162 85.5743 45.7228C81.4217 48.3966 76.8414 50.5653 71.8371 51.98C44.439 59.7006 16.1069 43.9922 8.32104 16.78Z" fill="#FFE266"/>
<path d="M3.32138 25.7298C1.96594 20.9133 1.2963 16.0454 1.31049 11.2507C1.35815 8.26245 2.08201 1.92229 6.33227 0.931462C11.9581 -0.411061 13.8096 4.53792 13.8096 4.53792C13.9262 5.03795 14.0427 5.53798 14.2216 6.039C21.0047 29.7481 43.4324 44.7396 67.0611 42.9992C71.3597 42.8809 84.6579 40.7267 85.3908 45.5333C86.0644 50.1521 80.4531 54.4839 80.0123 54.7882C75.9863 57.3394 71.4701 59.3846 66.6526 60.8023C39.5016 68.6514 11.1072 52.9421 3.32138 25.7298Z" fill="#FFCD00"/>
<path d="M3.32138 25.7298C1.96594 20.9133 1.2963 16.0454 1.31049 11.2507C1.35815 8.26245 2.08201 1.92229 6.33227 0.931462C11.9581 -0.411061 13.8096 4.53792 13.8096 4.53792C13.9262 5.03795 14.0427 5.53798 14.2216 6.039C21.0047 29.7481 43.4324 44.7396 67.0611 42.9992C71.3597 42.8809 84.6579 40.7267 85.3908 45.5333C86.0644 50.1521 80.4531 54.4839 80.0123 54.7882C75.9863 57.3394 71.4701 59.3846 66.6526 60.8023C39.5016 68.6514 11.1072 52.9421 3.32138 25.7298Z" fill="#FFCD00"/>
<path d="M8.32104 16.78C6.7858 11.5247 6.18539 6.222 6.33105 0.99352C11.9559 -0.286748 13.8084 4.59998 13.8084 4.59998C13.9249 5.10001 14.0415 5.60004 14.2203 6.10106C14.4565 6.91436 14.6936 7.66541 14.9919 8.4797C15.0502 8.72971 15.1708 8.98071 15.2913 9.23172C15.4701 9.73274 15.6479 10.296 15.889 10.798C16.0086 11.1113 16.1291 11.3623 16.2486 11.6756C16.4285 12.1143 16.6073 12.6154 16.8494 13.0551C16.9689 13.3684 17.1507 13.6826 17.2713 13.9337C17.4511 14.3724 17.6932 14.8122 17.9352 15.252C18.0548 15.5652 18.2376 15.8172 18.3571 16.1305C18.5992 16.5702 18.8413 17.01 19.0843 17.3875C19.2671 17.6395 19.3867 17.9528 19.5695 18.2048C19.8738 18.6455 20.1149 19.1475 20.4192 19.5883C20.5407 19.7771 20.6613 20.0281 20.8451 20.2178C21.2709 20.8473 21.6958 21.5391 22.1849 22.1073C22.3074 22.2338 22.429 22.4226 22.4892 22.5481C22.8548 23.0521 23.2214 23.4938 23.587 23.9978C23.7698 24.2498 23.9526 24.5018 24.1986 24.6926C24.504 25.0711 24.8103 25.3873 25.1156 25.7658C25.3606 26.0188 25.5434 26.2708 25.7885 26.5238C26.0948 26.84 26.4011 27.1563 26.7074 27.4725C26.9525 27.7255 27.1975 27.9785 27.4426 28.2315C27.7489 28.5478 28.0562 28.8017 28.3625 29.118C28.6076 29.371 28.9149 29.625 29.1599 29.878C29.4672 30.132 29.7735 30.4482 30.0809 30.7022C30.3259 30.9552 30.6342 31.1469 30.8792 31.3999C31.1866 31.6539 31.5551 31.9711 31.8625 32.2251C32.1085 32.4158 32.4158 32.6698 32.6618 32.8606C33.2152 33.3053 33.8308 33.751 34.4474 34.1345C34.7557 34.3262 35.063 34.5802 35.3713 34.7719C35.6796 34.9637 35.9869 35.2176 36.3575 35.4104C36.728 35.6031 37.0353 35.8571 37.4059 36.0498C37.7142 36.2415 38.0225 36.4333 38.3308 36.625C38.7013 36.8177 39.0719 37.0105 39.4425 37.2032C39.7507 37.3949 40.06 37.5244 40.3683 37.7161C40.7389 37.9088 41.1094 38.1016 41.48 38.2943C41.7893 38.4238 42.0986 38.5532 42.4069 38.745C42.7774 38.9377 43.2103 39.1314 43.5818 39.2619C43.8911 39.3913 44.1381 39.5198 44.4484 39.587C44.8812 39.7808 45.315 39.9122 45.6856 40.105C45.9336 40.1712 46.1807 40.2997 46.4287 40.3659C48.0384 40.952 49.7123 41.4146 51.3863 41.8772C51.6343 41.9434 51.8824 42.0097 52.1304 42.0759C52.6265 42.2083 53.0612 42.2775 53.5583 42.3477C53.8063 42.414 54.1166 42.4812 54.3656 42.4852C54.8627 42.5553 55.2975 42.6246 55.7946 42.6948C56.1048 42.762 56.3538 42.7659 56.6641 42.8332C57.1612 42.9034 57.596 42.9726 58.094 42.9805C58.343 42.9845 58.6533 43.0517 58.9646 43.0567C59.4617 43.1269 59.9597 43.1348 60.4568 43.205C60.7058 43.209 60.9548 43.213 61.2038 43.2169C61.7019 43.2249 62.2612 43.2961 62.7592 43.304C62.8837 43.306 63.0083 43.308 63.1328 43.31C64.5024 43.3318 65.873 43.2914 67.2446 43.1887C71.5432 43.0705 84.8414 40.9162 85.5743 45.7228C81.4217 48.3966 76.8414 50.5653 71.8371 51.98C44.439 59.7006 16.1069 43.9922 8.32104 16.78Z" fill="#FFE266"/>
<path d="M73.8549 42.6091C79.0281 42.318 84.9414 42.4746 85.3888 45.6575C86.0624 50.2764 80.4511 54.6082 80.0104 54.9125C79.6951 55.1565 79.3186 55.3374 79.0044 55.5192L73.8549 42.6091Z" fill="#895140"/>
<path d="M85.3898 45.5958C85.452 45.5968 85.452 45.5968 85.3898 45.5958C82.7462 47.3595 79.8587 48.808 76.8495 50.0677L73.8559 42.5474C74.1672 42.5523 74.4172 42.494 74.7285 42.499C74.7907 42.5 74.9152 42.502 74.9775 42.503C75.2265 42.5069 75.4133 42.5099 75.6633 42.4516C75.7255 42.4526 75.8501 42.4546 75.9123 42.4556C76.5349 42.4655 77.0962 42.4122 77.7187 42.4222C77.781 42.4231 77.9055 42.4251 77.9677 42.4261C78.1545 42.4291 78.4035 42.4331 78.5903 42.4361C78.6526 42.437 78.7771 42.439 78.8393 42.44C79.0884 42.444 79.2751 42.447 79.5231 42.5132C79.5854 42.5142 79.6476 42.5152 79.7099 42.5162C79.9589 42.5202 80.2692 42.5874 80.5182 42.5913C80.5805 42.5923 80.6428 42.5933 80.7673 42.5953C80.954 42.5983 81.1398 42.6635 81.3266 42.6665C81.3888 42.6675 81.5133 42.6695 81.5746 42.7327C81.7604 42.798 81.9471 42.8009 82.0706 42.8652C82.1329 42.8662 82.1952 42.8672 82.2565 42.9304C82.5045 42.9966 82.6903 43.0619 82.876 43.1271C82.9383 43.1281 82.9995 43.1914 83.0618 43.1924C83.1853 43.2566 83.3711 43.3218 83.4946 43.3861C83.5569 43.3871 83.6181 43.4503 83.6804 43.4513C83.8039 43.5155 83.9274 43.5798 84.0509 43.644C84.1132 43.645 84.1744 43.7083 84.2367 43.7093C84.3592 43.8358 84.545 43.901 84.6675 44.0275L84.7288 44.0907C84.8513 44.2172 84.9126 44.2805 84.9728 44.406C85.0341 44.4692 85.0331 44.5315 85.0954 44.5325C85.1556 44.658 85.2169 44.7212 85.2772 44.8467C85.2762 44.909 85.3375 44.9722 85.3375 44.9722C85.3325 45.2835 85.3918 45.4713 85.3898 45.5958Z" fill="#A05F4B"/>
<path d="M40.1225 37.5251L26.7628 43.5392L24.9041 54.6562C14.7955 48.1433 6.92237 38.1165 3.32235 25.6671C1.96692 20.8506 1.29727 15.9827 1.31147 11.188C1.35913 8.19975 2.08299 1.85961 6.33325 0.86878C11.9591 -0.473743 13.8106 4.47522 13.8106 4.47522C13.9271 4.97525 14.0437 5.4753 14.2225 5.97632C18.2918 20.2391 27.9544 31.2907 40.1225 37.5251Z" fill="#FEF36C"/>
<path d="M26.7616 43.6017C18.147 37.1126 11.5061 27.9151 8.32104 16.78C6.7858 11.5247 6.18539 6.222 6.33105 0.99352C11.9559 -0.286748 13.8084 4.59998 13.8084 4.59998C13.9249 5.10001 14.0415 5.60004 14.2203 6.10106C14.4565 6.91436 14.6936 7.66541 14.9919 8.4797C15.0502 8.72971 15.1708 8.98071 15.2913 9.23172C15.4701 9.73274 15.6479 10.296 15.889 10.798C16.0086 11.1113 16.1291 11.3623 16.2486 11.6756C16.4285 12.1143 16.6073 12.6154 16.8494 13.0551C16.9689 13.3684 17.1507 13.6826 17.2713 13.9337C17.4511 14.3724 17.6932 14.8122 17.9352 15.252C18.0548 15.5652 18.2376 15.8172 18.3571 16.1305C18.5992 16.5702 18.8413 17.01 19.0843 17.3875C19.2671 17.6395 19.3867 17.9528 19.5695 18.2048C19.8738 18.6455 20.1149 19.1475 20.4192 19.5883C20.5407 19.7771 20.6613 20.0281 20.8451 20.2178C21.2709 20.8473 21.6958 21.5391 22.1849 22.1073C22.3074 22.2338 22.429 22.4226 22.4892 22.5481C22.8548 23.0521 23.2214 23.4938 23.587 23.9978C23.7698 24.2498 23.9526 24.5018 24.1986 24.6926C24.504 25.0711 24.8103 25.3873 25.1156 25.7658C25.3607 26.0188 25.5434 26.2708 25.7885 26.5238C26.0948 26.84 26.4011 27.1563 26.7074 27.4725C26.9525 27.7255 27.1975 27.9785 27.4426 28.2315C27.7489 28.5478 28.0562 28.8017 28.3625 29.118C28.6076 29.371 28.9149 29.625 29.1599 29.878C29.4672 30.132 29.7735 30.4482 30.0809 30.7022C30.3259 30.9552 30.6342 31.1469 30.8792 31.3999C31.1866 31.6539 31.5551 31.9711 31.8625 32.2251C32.1085 32.4158 32.4158 32.6698 32.6618 32.8606C33.2152 33.3053 33.8308 33.751 34.4474 34.1345C34.7557 34.3262 35.063 34.5802 35.3713 34.7719C35.6796 34.9637 35.9869 35.2176 36.3575 35.4104C36.728 35.6031 37.0353 35.8571 37.4059 36.0498C37.7142 36.2415 38.0225 36.4333 38.3308 36.625C38.7013 36.8177 39.0719 37.0105 39.4425 37.2032C39.6895 37.3317 39.9988 37.4611 40.2448 37.6519L26.7616 43.6017Z" fill="#FFF68E"/>
<path d="M45.4569 73.9774L44.1039 76.8203C34.2834 75.6673 15.359 71.3801 13.868 55.5394C11.8438 34.0857 40.1215 37.588 40.1215 37.588C23.1354 52.3245 37.465 67.4982 45.4569 73.9774Z" fill="#FFF7B0"/>
</g>
</svg>
