<svg width="30" height="37" viewBox="0 0 30 37" fill="none" xmlns="http://www.w3.org/2000/svg">
<path d="M27.3882 18.5438C27.2399 17.7909 26.9782 17.2236 26.3591 16.7434C21.3006 12.3281 16.2647 7.87578 11.2062 3.46052C9.77752 2.23102 8.5276 0.957917 6.88075 0.00257984C6.37445 1.57788 6.1123 3.25143 5.77632 4.87987C3.89058 14.2716 2.29431 23.6873 1.00176 33.1868C0.84965 34.2654 0.757104 35.3295 0.664573 36.3935C10.358 33.5553 19.7243 30.0079 29.2584 26.7667C28.6397 24.0456 27.9842 21.3019 27.3882 18.5438ZM24.6879 19.6444C25.4554 20.8774 25.7462 22.2267 25.813 23.6937C23.2466 22.584 20.5585 21.7564 18.0969 20.558C20.219 20.0719 22.4829 19.5195 24.6879 19.6444ZM3.92731 30.3901C5.09438 23.0042 6.39485 15.6489 7.59884 8.28564C7.69206 7.88417 7.77103 7.42305 7.86425 7.02158C9.65055 11.0674 10.9065 15.4004 12.4318 19.5414C9.74855 23.3521 6.84634 26.7744 3.92731 30.3901ZM13.3232 14.4321C12.4209 11.8433 11.4818 9.23198 10.937 6.556C15.0946 9.70769 18.8981 13.3561 22.8376 16.7819C20.7952 17.4696 18.6899 17.7622 16.5477 18.0324C15.8639 18.0729 15.2681 18.2183 14.6549 17.8945C14.0493 16.8114 13.75 15.5588 13.3232 14.4321ZM6.19913 31.982C8.21026 28.5246 11.0704 25.5861 13.5614 22.4219C14.0658 21.7624 14.4518 21.7944 15.1842 22.0892C18.0686 23.3422 21.0521 24.3502 23.8912 25.6775C18.0735 27.9805 12.1107 29.9401 6.19913 31.982Z" fill="url(#paint0_linear)"/>
<defs>
<linearGradient id="paint0_linear" x1="6.96847" y1="3.82071" x2="17.6957" y2="42.6969" gradientUnits="userSpaceOnUse">
<stop stop-color="#FF9E2C"/>
<stop offset="1" stop-color="#F07129"/>
</linearGradient>
</defs>
</svg>
