<svg width="116" height="126" viewBox="0 0 116 126" fill="none" xmlns="http://www.w3.org/2000/svg">
<g opacity="0.8">
<path d="M23.1814 19.9147L28.021 38.2776L35.8478 36.2148L31.0082 17.8519L23.1814 19.9147Z" fill="#A05F4B"/>
<path d="M23.147 19.896L27.9866 38.2589L31.9 37.2275L27.0604 18.8646L23.147 19.896Z" fill="#895140"/>
<path d="M26.8789 55.1835C25.6049 50.358 25.0793 45.4153 25.2032 40.6506C25.3249 37.6579 26.1792 31.3386 30.4135 30.4577C36.0462 29.2438 37.8319 34.2274 37.8319 34.2274C37.9298 34.7197 38.0867 35.1925 38.1846 35.6848C44.4564 59.5167 66.5884 74.9997 90.2567 73.7681C94.5096 73.7339 107.92 71.8402 108.486 76.7042C109.11 81.3517 103.336 85.4992 102.922 85.8334C98.8237 88.3093 94.2928 90.2728 89.4673 91.5468C62.1098 98.8579 34.0523 82.5212 26.8789 55.1835Z" fill="#FFCD00"/>
<path d="M32.009 46.3296C30.6371 41.0118 30.1119 35.6753 30.3741 30.5367C36.0068 29.3227 37.7925 34.3063 37.7925 34.3063C37.8904 34.7987 38.0473 35.2714 38.1452 35.7638C38.3411 36.5516 38.6157 37.3789 38.8117 38.1667C38.8902 38.4031 38.9883 38.6985 39.0667 38.9349C39.2433 39.4667 39.4199 39.9986 39.5964 40.5304C39.6945 40.8259 39.7926 41.1213 39.9498 41.3972C40.1067 41.8699 40.3228 42.3231 40.5388 42.7762C40.6369 43.0716 40.8137 43.4066 40.9118 43.702C41.1278 44.1551 41.3439 44.6082 41.5403 45.0023C41.6975 45.2781 41.7956 45.5736 41.9724 45.9085C42.1884 46.3616 42.4044 46.8148 42.6599 47.1892C42.8171 47.465 42.9743 47.7409 43.1315 48.0167C43.4066 48.4502 43.7014 48.9428 43.9174 49.3959C44.055 49.6127 44.1925 49.8294 44.3301 50.0462C44.7428 50.6964 45.1555 51.3467 45.6273 51.9773C45.7452 52.135 45.8435 52.2335 45.9615 52.3912C46.3153 52.8641 46.6692 53.3371 47.0426 53.8692C47.2589 54.1254 47.3965 54.3422 47.6127 54.5984C47.9273 54.9532 48.1828 55.3276 48.4975 55.6824C48.7137 55.9386 48.93 56.1948 49.1463 56.451C49.4413 56.7467 49.6968 57.1212 49.9918 57.4169C50.208 57.6731 50.4834 57.9097 50.6997 58.1659C50.9947 58.4616 51.2896 58.7573 51.5846 59.053C51.86 59.2896 52.0763 59.5458 52.3516 59.7825C52.6466 60.0782 52.9416 60.3738 53.2957 60.6499C53.5711 60.8865 53.8464 61.1231 54.1218 61.3597C54.4759 61.6358 54.7709 61.9316 55.1249 62.2076C55.4003 62.4442 55.656 62.6217 55.9314 62.8583C56.4822 63.3316 57.0724 63.7261 57.6822 64.1797C58.0166 64.3966 58.292 64.6333 58.6265 64.8502C58.9609 65.0672 59.2363 65.3038 59.5708 65.5208C59.9052 65.7378 60.2397 65.9548 60.5741 66.1718C60.889 66.3297 61.1643 66.5663 61.4792 66.7242C61.8136 66.9412 62.2072 67.1385 62.5417 67.3555C62.8565 67.5134 63.1713 67.6713 63.4271 67.8488C63.8206 68.0462 64.1551 68.2632 64.5487 68.4606C64.8635 68.6185 65.1783 68.7764 65.4145 68.8948C65.808 69.0921 66.2016 69.2895 66.5755 69.4278C66.8707 69.5266 67.1856 69.6845 67.4217 69.8029C67.8153 70.0003 68.2679 70.178 68.6418 70.3163C68.878 70.4347 69.0945 70.4941 69.3897 70.5929C70.9641 71.1855 72.6568 71.7388 74.3102 72.174C74.5267 72.2333 74.8023 72.273 75.0384 72.3915C75.5305 72.4905 75.9635 72.6092 76.4557 72.7082C76.7313 72.7479 77.0265 72.8467 77.3021 72.8864C77.7942 72.9855 78.2272 73.1041 78.6997 73.1441C78.9753 73.1838 79.2509 73.2235 79.5266 73.2632C80.0187 73.3622 80.4912 73.4022 80.9637 73.4421C81.2393 73.4819 81.5149 73.5216 81.7905 73.5613C82.263 73.6012 82.7551 73.7003 83.2867 73.7206C83.5623 73.7603 83.8183 73.741 84.0348 73.8003C84.5664 73.8206 85.098 73.8409 85.6296 73.8613C85.7674 73.8811 85.8856 73.8419 86.0234 73.8617C87.3425 73.883 88.7208 73.8847 90.0794 73.8273C94.3324 73.793 107.684 71.919 108.308 76.7633C104.111 79.3376 99.4228 81.419 94.42 82.7518C67.2398 90.0041 39.2414 73.6477 32.009 46.3296Z" fill="#FFE266"/>
<path d="M97.0696 73.5402C102.268 73.389 108.135 73.6717 108.525 76.8225C109.149 81.47 103.375 85.6175 102.961 85.9517C102.626 86.1285 102.252 86.384 101.917 86.5608L97.0696 73.5402Z" fill="#895140"/>
<path d="M108.525 76.8225C105.806 78.5125 102.929 79.9267 99.8367 81.0846L97.0696 73.5402C97.3256 73.5208 97.6603 73.5409 97.9162 73.5215C97.9753 73.5019 98.0541 73.5414 98.1722 73.5022C98.4282 73.4828 98.6251 73.483 98.8811 73.4636C98.9402 73.444 99.078 73.4639 99.1371 73.4442C99.7278 73.445 100.318 73.4457 100.909 73.4464C100.968 73.4268 101.106 73.4466 101.165 73.427C101.362 73.4272 101.559 73.4275 101.775 73.4868C101.854 73.5263 101.972 73.4871 102.051 73.5265C102.248 73.5268 102.524 73.5665 102.72 73.5667C102.78 73.5471 102.858 73.5866 102.858 73.5866C103.134 73.6263 103.409 73.666 103.626 73.7253C103.705 73.7648 103.764 73.7452 103.842 73.7847C104.039 73.7849 104.197 73.8638 104.394 73.8641C104.472 73.9035 104.531 73.8839 104.669 73.9038C104.866 73.904 105.024 73.983 105.181 74.0619C105.26 74.1014 105.319 74.0818 105.398 74.1213C105.614 74.1806 105.831 74.2399 106.047 74.2992C106.126 74.3387 106.126 74.3387 106.204 74.3782C106.362 74.4571 106.5 74.477 106.598 74.5756C106.677 74.615 106.755 74.6545 106.755 74.6545C106.913 74.7335 106.992 74.7729 107.09 74.8715C107.169 74.911 107.188 74.9701 107.247 74.9505C107.405 75.0294 107.523 75.1871 107.68 75.266C107.7 75.3251 107.7 75.3251 107.778 75.3646C107.877 75.4631 107.975 75.5617 108.014 75.6799C108.034 75.739 108.054 75.7981 108.132 75.8376C108.172 75.9557 108.27 76.0543 108.309 76.1725C108.329 76.2316 108.348 76.2907 108.368 76.3498C108.466 76.4483 108.466 76.6452 108.525 76.8225Z" fill="#A05F4B"/>
<path d="M15.7992 50.4639C17.0062 45.602 18.8428 41.056 21.2105 36.9241C22.7691 34.3073 26.4572 29.2121 30.6693 30.4379C36.2001 32.0789 35.3668 37.2759 35.3668 37.2759C35.2087 37.7876 35.1097 38.2797 35.0106 38.7719C29.1929 62.7466 41.3123 86.8021 62.6827 97.0271C66.5001 99.0401 79.0956 103.781 77.3772 108.288C75.6786 112.657 68.6483 113.613 68.1364 113.652C63.3516 113.862 58.4297 113.463 53.5678 112.256C26.0499 105.646 9.13061 78.0014 15.7992 50.4639Z" fill="#FFCD00"/>
<path d="M24.5281 45.1387C25.8341 39.7847 27.8877 34.9042 30.6102 30.4577C36.141 32.0986 35.3077 37.2956 35.3077 37.2956C35.1496 37.8074 35.0505 38.2995 34.9515 38.7916C34.7537 39.5789 34.5754 40.4254 34.4367 41.1931C34.397 41.4687 34.3573 41.7443 34.2979 41.9608C34.2185 42.512 34.1391 43.0632 34.0597 43.6144C34.0396 43.9491 33.9998 44.2247 33.9207 44.579C33.8807 45.0515 33.8013 45.6028 33.7613 46.0753C33.7412 46.4099 33.7211 46.7446 33.7011 47.0793C33.6611 47.5518 33.6212 48.0244 33.6008 48.5559C33.5807 48.8906 33.5606 49.2253 33.5405 49.56C33.5006 50.0325 33.5394 50.5445 33.4994 51.017C33.4793 51.3517 33.4987 51.6077 33.4786 51.9424C33.4583 52.474 33.497 52.9859 33.5554 53.557C33.5748 53.813 33.5942 54.069 33.6135 54.325C33.6717 55.0929 33.7298 55.8609 33.788 56.6288C33.7877 56.8257 33.8466 57.003 33.8463 57.1999C33.9243 57.8301 33.9827 58.4012 34.1198 59.0117C34.1588 59.3268 34.2569 59.6222 34.2959 59.9373C34.3741 60.3706 34.472 60.8629 34.5502 61.2962C34.5892 61.6112 34.7069 61.9658 34.7459 62.2809C34.8242 62.7142 34.9615 63.1278 35.0397 63.5611C35.1574 63.9156 35.1964 64.2307 35.3141 64.5853C35.4515 64.9989 35.5297 65.4322 35.6474 65.7867C35.7651 66.1413 35.8828 66.4958 35.9809 66.7913C36.1182 67.2049 36.236 67.5595 36.3733 67.9731C36.491 68.3277 36.5891 68.6232 36.7068 68.9777C36.8441 69.3914 37.0405 69.7854 37.1779 70.199C37.2759 70.4945 37.4527 70.8294 37.5508 71.1249C37.8453 71.8143 38.1202 72.4447 38.4738 73.1146C38.6506 73.4495 38.8274 73.7845 39.0042 74.1194C39.1811 74.4544 39.3578 74.7893 39.5347 75.1242C39.7115 75.4592 39.9079 75.8532 40.1438 76.1685C40.3206 76.5034 40.4777 76.7793 40.7136 77.0946C40.9101 77.4886 41.146 77.804 41.3818 78.1193C41.539 78.3951 41.7749 78.7104 41.9321 78.9863C42.1876 79.3607 42.4235 79.676 42.679 80.0504C42.8953 80.3066 43.0525 80.5825 43.2687 80.8387C43.5243 81.2131 43.7602 81.5284 44.0748 81.8832C44.291 82.1394 44.4482 82.4153 44.6449 82.6124C44.9595 82.9672 45.215 83.3416 45.51 83.6373C45.7066 83.8344 45.8442 84.0512 46.0212 84.1892C47.1617 85.4507 48.3022 86.7122 49.5608 87.9345C49.7575 88.1316 49.9345 88.2697 50.1312 88.4668C50.5049 88.802 50.8786 89.1372 51.2326 89.4133C51.4293 89.6104 51.685 89.7879 51.8817 89.985C52.2554 90.3202 52.6095 90.5963 52.9635 90.8724C53.2193 91.0499 53.416 91.247 53.6717 91.4245C54.0258 91.7006 54.4586 92.0161 54.8126 92.2922C55.0684 92.4697 55.2454 92.6078 55.5012 92.7853C55.9144 93.0418 56.3471 93.3573 56.7012 93.6334C56.9373 93.7518 57.1144 93.8899 57.3505 94.0083C57.7833 94.3238 58.2556 94.5607 58.6687 94.8172C58.7475 94.8566 58.9049 94.9356 58.9836 94.975C60.1248 95.6459 61.3841 96.2775 62.5648 96.8696C66.3821 98.8825 78.958 103.564 77.2592 108.13C72.2971 108.4 67.2375 107.98 62.1787 106.773C34.7787 100.321 17.9186 72.6566 24.5281 45.1387Z" fill="#FFE266"/>
<path d="M68.8423 99.9692C73.4862 102.298 78.5033 105.356 77.3775 108.288C75.6789 112.657 68.6486 113.614 68.1367 113.653C67.7429 113.652 67.3491 113.652 66.8962 113.671L68.8423 99.9692Z" fill="#895140"/>
<path d="M77.3971 108.347C74.2466 108.54 70.9979 108.438 67.7103 108.021L68.8619 100.028C69.098 100.147 69.4129 100.304 69.649 100.423C69.7277 100.462 69.8064 100.502 69.8851 100.541C70.1213 100.66 70.2787 100.739 70.5148 100.857C70.5935 100.897 70.6723 100.936 70.751 100.975C71.3019 101.252 71.7938 101.548 72.2857 101.844C72.3644 101.883 72.4431 101.923 72.5218 101.962C72.6989 102.1 72.8563 102.179 73.0333 102.317C73.112 102.357 73.1908 102.396 73.2695 102.436C73.4465 102.574 73.6826 102.692 73.8597 102.83C73.9384 102.87 73.9384 102.87 74.0171 102.909C74.2532 103.027 74.4499 103.225 74.6269 103.363C74.7056 103.402 74.7252 103.461 74.8039 103.501C74.9614 103.58 75.0793 103.737 75.2367 103.816C75.3154 103.856 75.3351 103.915 75.4334 104.013C75.5908 104.092 75.7088 104.25 75.8071 104.348C75.8267 104.408 75.9054 104.447 75.9841 104.487C76.1612 104.625 76.2791 104.782 76.4758 104.979C76.4954 105.038 76.5741 105.078 76.5937 105.137C76.692 105.236 76.81 105.393 76.9083 105.492C76.9279 105.551 77.0067 105.59 77.0263 105.649C77.1246 105.748 77.1638 105.866 77.2031 105.984C77.2227 106.043 77.2423 106.103 77.321 106.142C77.3799 106.319 77.4978 106.477 77.5567 106.654C77.5763 106.713 77.5763 106.713 77.5959 106.772C77.6351 106.891 77.6744 107.009 77.6545 107.147C77.6741 107.206 77.6938 107.265 77.6543 107.344C77.6935 107.462 77.6737 107.6 77.6342 107.678C77.6538 107.737 77.6143 107.816 77.6143 107.816C77.4763 107.993 77.4564 108.131 77.3971 108.347Z" fill="#A05F4B"/>
</g>
</svg>
