<svg width="211" height="427" viewBox="0 0 211 427" fill="none" xmlns="http://www.w3.org/2000/svg">
<g opacity="0.8">
<path d="M90.1657 97.2102C87.9518 97.009 56.5547 91.3736 54.5421 91.1723C45.0827 90.3673 41.2588 89.7635 41.2588 89.7635C41.2588 89.7635 76.0773 97.2102 85.9392 102.041C99.8264 109.085 117.336 120.154 126.393 126.997C141.689 138.67 157.79 151.954 160.809 164.03C161.413 166.042 161.815 168.457 162.218 171.074C165.841 170.269 169.665 169.665 173.287 168.86C170.872 155.979 162.218 133.84 150.142 126.393C134.846 116.733 102.845 98.2165 90.1657 97.2102Z" fill="url(#paint0_linear)"/>
<path d="M117.94 112.305C102.241 104.858 89.7632 100.43 50.9194 91.7762C50.9194 91.7762 75.2722 97.8141 92.7821 107.072C107.676 114.921 115.122 125.186 122.167 130.62C132.632 138.67 144.306 148.532 151.752 157.992C155.375 162.621 158.193 167.25 160.407 171.476C161.815 171.074 163.426 170.873 164.834 170.47C164.633 162.017 163.627 152.155 160.608 147.124C154.771 137.463 133.639 119.752 117.94 112.305Z" fill="url(#paint1_linear)"/>
<path d="M160.407 171.476C158.595 168.054 156.784 164.633 155.174 161.815C155.174 161.815 157.187 166.243 158.394 172.08C159.199 171.878 159.803 171.677 160.407 171.476Z" fill="url(#paint2_linear)"/>
<path d="M107.676 117.537C111.701 120.758 120.154 129.613 124.582 133.035C129.211 136.657 150.545 156.582 154.57 161.815C155.979 163.627 157.992 167.249 159.803 171.677C160.205 171.677 160.608 171.476 160.809 171.476C158.998 167.652 157.388 164.633 156.784 163.425C154.57 159.803 150.344 154.57 144.909 149.136C139.677 143.5 107.676 117.537 107.676 117.537Z" fill="url(#paint3_linear)"/>
<path d="M165.64 23.3463C164.834 25.7615 154.771 63.3977 153.966 66.0141C148.532 80.7063 152.557 125.99 155.174 147.928C157.388 165.438 177.313 186.369 190.395 195.829C193.011 192.005 195.628 188.382 198.445 184.558C195.829 182.747 193.414 180.935 191.401 179.325C179.527 169.665 173.086 144.708 168.055 121.764C165.036 108.279 161.614 82.9202 161.212 63.8002C160.809 50.3156 170.872 7.84906 170.872 7.84906C170.872 7.84906 169.665 12.2768 165.64 23.3463Z" fill="url(#paint4_linear)"/>
<path d="M156.18 104.656C156.18 125.99 164.835 158.796 172.684 170.067C176.709 175.903 187.376 182.344 196.433 186.973C197.64 185.363 198.647 183.954 199.854 182.545C196.433 178.117 192.81 172.683 189.389 166.042C182.546 152.758 177.715 134.645 174.294 118.745C171.879 108.279 164.633 94.5932 163.426 73.8631C162.218 49.7115 168.055 19.5221 168.055 19.5221C157.79 67.2214 156.18 83.3225 156.18 104.656Z" fill="url(#paint5_linear)"/>
<path d="M199.854 182.747C200.458 182.143 200.861 181.539 201.464 180.734C195.628 176.306 191.804 171.879 191.804 171.879C194.219 175.3 196.835 178.923 199.854 182.747Z" fill="url(#paint6_linear)"/>
<path d="M167.25 96.0021C167.25 96.0021 179.527 145.11 182.747 153.966C185.967 162.821 189.791 170.067 192.609 174.495C193.615 175.903 196.03 179.325 199.452 183.149C199.653 182.746 200.055 182.344 200.257 182.143C196.433 177.715 193.414 173.69 192.005 171.073C188.181 164.029 177.111 129.814 175.703 122.971C174.294 115.927 168.86 102.241 167.25 96.0021Z" fill="url(#paint7_linear)"/>
<path d="M212.735 49.3094C216.961 36.6299 240.912 0 240.912 0C240.912 0 238.094 3.62273 230.647 12.6796C229.037 14.4909 206.697 46.693 204.886 48.7056C194.822 60.7814 182.948 104.657 177.916 126.192C173.891 143.299 185.564 169.866 194.621 183.149C198.445 180.533 202.269 177.916 206.093 175.501C204.282 172.885 202.672 170.47 201.263 168.055C193.414 154.771 196.03 129.412 199.25 106.066C201.062 92.1785 206.697 67.4231 212.735 49.3094Z" fill="url(#paint8_linear)"/>
<path d="M211.326 59.5736C218.37 36.4284 234.471 10.0629 234.471 10.0629C208.307 51.1206 201.061 65.8128 193.816 85.9391C186.571 106.065 183.35 139.676 186.772 153.161C188.583 160.205 196.231 169.664 203.275 177.111C204.886 176.105 206.496 175.099 208.106 174.092C206.294 168.859 204.885 162.218 203.879 154.972C202.068 140.079 203.678 121.563 205.892 105.462C207.502 94.7946 205.288 79.2974 211.326 59.5736Z" fill="url(#paint9_linear)"/>
<path d="M210.32 172.885C206.496 166.646 204.282 161.212 204.282 161.212C205.288 165.036 206.697 169.665 208.106 174.092C208.911 173.69 209.515 173.287 210.32 172.885Z" fill="url(#paint10_linear)"/>
<path d="M207.301 81.5113C207.301 81.5113 202.068 131.827 202.068 141.286C202.068 150.746 203.074 158.796 204.282 164.029C204.684 165.639 205.892 169.665 207.703 174.495C208.106 174.294 208.508 174.092 208.911 173.69C206.697 168.054 205.288 163.224 204.885 160.608C203.879 152.557 205.087 116.732 206.093 109.688C206.898 102.644 206.697 87.7504 207.301 81.5113Z" fill="url(#paint11_linear)"/>
<path d="M181.539 260.032C181.539 260.032 173.489 275.127 171.275 298.473C165.237 364.488 186.168 402.325 186.168 402.325C177.111 370.526 197.842 269.29 197.842 269.29C186.37 266.674 181.539 260.032 181.539 260.032Z" fill="url(#paint12_linear)"/>
<path d="M185.162 399.91C185.162 399.91 193.414 335.909 198.848 312.763C203.075 295.253 214.144 265.064 214.144 265.064C207.704 268.083 196.634 268.888 196.634 268.888C172.885 320.009 185.162 399.91 185.162 399.91Z" fill="url(#paint13_linear)"/>
<path d="M321.015 60.5801C321.015 60.5801 326.247 55.1459 310.348 55.5485C299.077 55.7497 285.391 59.3725 274.523 64.2028C260.233 70.6432 231.05 88.9581 218.974 109.688C202.471 138.066 203.477 154.369 204.081 179.325C204.685 203.074 217.364 244.736 217.364 244.736C229.239 263.453 229.44 229.641 229.44 229.641C229.44 229.641 218.974 188.986 218.37 163.023C217.767 137.06 224.006 130.821 247.151 97.2099C270.095 64.0015 321.015 60.5801 321.015 60.5801Z" fill="url(#paint14_linear)"/>
<path d="M313.568 63.1963C337.92 58.1647 367.909 67.8253 367.909 67.8253C367.909 67.8253 345.971 59.3723 332.486 55.9508C319.203 52.5293 289.416 60.3786 267.277 72.8569C245.138 85.3352 234.27 110.292 227.427 120.355C220.584 130.418 213.339 152.356 212.131 174.293C210.923 196.231 225.012 242.723 225.012 242.723L230.245 225.616C230.245 225.616 221.993 205.489 220.785 183.552C219.376 161.815 219.376 146.922 238.698 112.908C258.421 79.096 289.215 68.2278 313.568 63.1963Z" fill="url(#paint15_linear)"/>
<path d="M165.237 154.57C145.915 140.079 112.103 134.645 96.4049 134.242C84.3291 133.84 70.6431 135.852 59.9762 140.079C45.0827 145.916 51.9257 148.733 51.9257 148.733C51.9257 148.733 100.229 132.23 134.444 154.167C168.859 176.105 176.91 179.526 186.369 203.678C196.03 227.83 202.068 269.29 202.068 269.29C202.068 269.29 215.351 300.486 218.974 278.548C218.974 278.548 214.345 235.075 205.691 213.137C197.036 189.791 191.401 174.092 165.237 154.57Z" fill="url(#paint16_linear)"/>
<path d="M161.211 167.652C151.148 161.01 131.223 142.293 106.065 139.274C80.9074 136.456 50.3154 140.683 39.4472 148.935C28.579 157.186 11.4717 173.69 11.4717 173.69C11.4717 173.69 35.422 153.161 59.7748 148.331C84.1276 143.501 116.933 141.488 147.928 165.237C178.922 188.986 184.759 202.672 191.803 223.201C199.049 243.729 199.25 265.667 199.25 265.667L210.722 279.353C210.722 279.353 205.691 231.05 196.03 211.326C186.571 191.602 171.274 174.294 161.211 167.652Z" fill="url(#paint17_linear)"/>
<path d="M80.7065 162.62C57.5612 169.061 32.6047 192.81 22.7428 205.087C15.0948 214.345 8.45307 226.622 5.23287 237.49C0.80508 252.786 7.2455 249.163 7.2455 249.163C7.2455 249.163 23.3465 200.86 61.5865 186.772C99.8265 172.885 107.474 168.457 132.431 175.501C157.388 182.545 194.018 202.873 194.018 202.873C194.018 202.873 226.824 211.125 211.729 195.024C211.729 195.024 174.294 172.281 151.551 165.841C128.003 158.796 112.305 153.765 80.7065 162.62Z" fill="url(#paint18_linear)"/>
<path d="M78.6938 182.947C116.33 172.683 130.821 176.507 151.551 183.35C172.281 190.193 189.791 203.074 189.791 203.074L207.703 202.269C207.703 202.269 166.243 176.91 144.708 172.683C123.173 168.255 100.028 169.865 88.7569 173.891C77.4862 177.916 50.3157 182.142 32.8058 200.457C15.296 218.772 0.201263 245.54 0 259.226C0 272.912 2.61639 296.46 2.61639 296.46C2.61639 296.46 0.805027 265.063 11.6732 242.723C22.7427 220.382 41.0576 193.212 78.6938 182.947Z" fill="url(#paint19_linear)"/>
<path d="M131.224 276.938C115.525 308.738 107.273 388.236 107.273 388.236C116.934 332.487 176.709 236.685 176.709 236.685C167.25 229.641 169.061 220.383 169.061 220.383C169.061 220.383 147.124 245.138 131.224 276.938Z" fill="url(#paint20_linear)"/>
<path d="M175.703 235.679C120.758 298.473 104.858 395.281 104.858 395.281C104.858 395.281 145.513 308.335 157.589 283.982C169.665 259.629 203.074 233.868 195.024 236.082C186.973 238.094 175.703 235.679 175.703 235.679Z" fill="url(#paint21_linear)"/>
<path d="M155.777 246.346C151.148 254.396 151.148 258.019 151.35 268.485C151.35 268.485 154.771 253.591 221.792 275.529C221.792 275.529 209.313 261.843 201.464 255.201C193.615 248.761 160.406 238.295 155.777 246.346Z" fill="url(#paint22_linear)"/>
<path d="M151.35 265.868L151.752 272.912C151.752 272.912 182.545 275.126 198.043 275.73C213.54 276.334 221.188 274.724 221.188 274.724C221.188 274.724 204.282 269.29 188.583 265.667C169.463 261.038 155.777 263.051 151.35 265.868Z" fill="url(#paint23_linear)"/>
<path d="M144.507 394.475C144.507 394.475 146.922 343.757 145.11 330.876C143.299 317.794 133.437 290.019 144.507 272.912C144.507 272.912 136.255 270.698 132.431 281.164C128.406 291.629 129.009 303.504 134.242 316.184C139.475 328.863 142.695 350.398 142.293 359.455C142.091 368.311 144.507 394.475 144.507 394.475Z" fill="url(#paint24_linear)"/>
<path d="M147.727 372.739C149.337 363.883 152.557 352.21 153.563 341.14C155.777 314.775 154.569 297.869 152.758 284.585C150.745 271.302 151.349 256.207 151.349 256.207C149.538 260.635 151.148 258.421 142.896 275.126C134.644 291.831 141.085 321.417 144.305 333.492C147.324 345.769 144.506 393.066 144.506 393.066C144.506 393.066 145.311 385.418 147.727 372.739Z" fill="url(#paint25_linear)"/>
<path d="M163.627 243.528C160.809 243.528 156.583 243.528 152.759 249.566C149.74 254.396 149.136 264.057 150.142 269.894C150.746 273.718 153.362 299.077 153.563 306.524C153.765 315.782 154.972 333.292 151.35 354.424C149.941 362.072 144.909 388.236 144.909 388.236C144.708 381.595 142.092 353.015 141.689 344.562C141.085 336.31 137.261 324.033 137.261 324.033C137.261 324.033 138.871 330.273 139.878 334.902C140.884 339.531 142.494 356.034 142.695 362.273C142.695 368.513 144.909 394.274 144.909 394.274C144.909 394.274 146.117 386.626 152.557 353.82C158.998 321.216 153.765 288.41 153.161 277.542C152.356 265.868 150.947 261.038 152.96 253.39C154.972 243.528 163.627 243.528 163.627 243.528Z" fill="url(#paint26_linear)"/>
<path d="M116.531 185.565C108.279 194.622 107.474 199.251 104.858 212.534C104.858 212.534 113.311 194.622 192.609 240.711C192.609 240.711 180.332 219.981 172.281 209.314C164.231 198.848 124.783 176.508 116.531 185.565Z" fill="url(#paint27_linear)"/>
<path d="M105.663 209.113L104.254 218.169C104.254 218.169 142.896 229.44 162.419 234.27C181.941 239.302 192.206 239.101 192.206 239.101C192.206 239.101 172.281 227.427 153.161 218.572C130.016 207.905 111.902 206.496 105.663 209.113Z" fill="url(#paint28_linear)"/>
<path d="M77.2849 223.201C69.4356 235.478 66.8191 250.573 70.0393 268.284C73.2595 285.995 71.4481 313.971 68.6305 325.443C65.8128 336.915 61.7876 370.928 61.7876 370.928C61.7876 370.928 78.6937 307.128 79.9013 290.02C81.1088 272.913 76.0772 234.874 94.7947 215.956C94.9959 215.956 85.3354 210.924 77.2849 223.201Z" fill="url(#paint29_linear)"/>
<path d="M72.0519 344.16C76.681 333.493 83.7252 319.204 87.9517 305.316C98.0149 272.309 101.034 250.573 102.241 233.063C103.449 215.553 108.078 196.634 108.078 196.634C104.455 201.867 107.273 199.452 92.3796 218.371C77.4861 237.29 77.6873 276.737 78.0898 293.039C78.6936 309.342 61.9888 368.916 61.9888 368.916C61.9888 368.916 65.4102 359.657 72.0519 344.16Z" fill="url(#paint30_linear)"/>
<path d="M61.9888 370.928C61.9888 370.928 65.6115 361.468 82.7188 321.618C99.8262 281.768 102.241 238.899 104.053 224.609C106.267 209.515 105.663 202.873 110.292 193.615C116.33 181.338 127.399 183.753 127.399 183.753C123.777 182.948 118.342 181.74 111.902 188.382C106.669 193.816 103.449 205.892 103.046 213.54C102.845 218.773 99.2225 251.579 97.4111 261.038C94.996 272.913 91.7757 295.454 81.5113 321.417C77.6873 330.876 64.0014 362.877 64.0014 362.877C65.6115 354.424 70.0393 317.19 71.6494 306.524C73.2595 295.655 71.6494 279.152 71.6494 279.152C71.6494 279.152 72.0519 287.605 72.0519 293.643C72.0519 299.681 69.838 321.216 68.0267 329.266C66.2153 337.518 61.9888 370.928 61.9888 370.928Z" fill="url(#paint31_linear)"/>
<path d="M195.225 136.859C183.351 137.261 179.124 137.463 170.268 143.299C161.413 149.337 175.501 186.37 183.753 194.823C191.804 203.276 208.307 216.559 208.307 216.559C178.52 141.89 195.225 136.859 195.225 136.859Z" fill="url(#paint32_linear)"/>
<path d="M192.206 137.06C189.187 142.293 187.98 158.193 194.42 179.527C199.653 197.238 207.1 216.157 207.1 216.157C207.1 216.157 208.509 207.301 206.697 189.791C204.886 172.08 200.257 137.262 200.257 137.262L192.206 137.06Z" fill="url(#paint33_linear)"/>
<path d="M208.106 114.518C196.433 119.751 199.653 129.009 199.653 129.009C218.572 115.324 250.774 124.582 265.869 125.789C280.762 126.997 338.323 120.556 338.323 120.556C338.323 120.556 308.335 119.55 298.071 120.556C287.806 121.563 263.051 119.55 248.359 114.317C233.264 108.883 219.78 109.084 208.106 114.518Z" fill="url(#paint34_linear)"/>
<path d="M202.068 126.795C183.552 137.261 186.168 135.248 181.137 137.663C181.137 137.663 198.244 136.053 213.54 137.261C228.836 138.468 248.157 138.67 278.146 134.242C290.825 132.43 303.907 128.003 313.769 125.386C328.059 121.764 336.713 120.153 336.713 120.153C336.713 120.153 282.976 126.795 268.887 124.179C254.598 121.562 220.584 116.329 202.068 126.795Z" fill="url(#paint35_linear)"/>
<path d="M178.319 139.274C186.973 136.457 192.408 137.865 205.892 137.865C218.37 138.067 256.007 141.689 292.838 132.029C329.669 122.368 338.323 120.557 338.323 120.557C338.323 120.557 308.939 119.752 301.693 120.355C294.448 120.758 275.529 119.953 270.296 119.148C265.063 118.343 257.818 116.934 257.818 116.934C257.818 116.934 271.906 120.557 281.567 120.557C291.026 120.557 324.034 121.563 331.48 121.161C331.48 121.161 301.895 129.01 293.24 131.022C269.491 136.658 249.365 136.457 238.899 137.06C230.446 137.463 201.464 136.255 196.835 135.853C190.194 135.249 179.326 136.255 173.891 140.281C167.25 145.111 167.451 149.74 167.854 153.161C167.451 152.759 166.847 142.897 178.319 139.274Z" fill="url(#paint36_linear)"/>
<path d="M116.934 173.488C116.934 173.488 97.4113 185.564 88.1532 184.356C80.5052 183.35 74.266 197.237 71.4484 203.275C66.0142 215.149 62.794 229.439 68.0269 248.962C73.0584 267.277 80.3039 278.749 100.028 307.73C100.028 307.73 96.8075 297.063 88.9583 277.138C84.3292 265.465 81.9141 257.616 80.304 249.364C77.4863 235.075 79.2976 221.389 83.7253 208.307C89.1594 192.407 113.11 176.104 116.934 173.488Z" fill="url(#paint37_linear)"/>
<path d="M133.437 188.583C165.236 187.375 182.746 229.439 182.746 229.439L202.872 215.552C202.872 215.552 177.513 171.677 141.487 167.45C110.493 163.626 68.0262 195.426 80.7058 251.176C80.7058 251.176 70.2402 190.797 133.437 188.583Z" fill="url(#paint38_linear)"/>
<path d="M121.764 169.463C121.764 169.463 113.11 171.677 104.254 177.916C98.4173 181.941 90.1656 188.784 83.9264 202.872C77.8885 216.558 75.6746 235.075 80.5049 253.993C82.5176 261.842 87.5491 274.12 91.1719 283.981C95.1971 294.85 98.2161 303.906 98.2161 303.906C98.2161 303.906 84.9327 286.598 76.6809 269.692C68.4291 252.584 65.8127 243.93 66.6177 226.823C68.0266 200.457 81.31 186.973 81.31 186.973C77.0835 191.199 69.0329 200.055 65.4102 222.797C61.7875 245.54 74.0645 266.472 78.6935 275.327C83.3226 284.183 99.8261 307.73 99.8261 307.73C99.4236 301.089 84.7315 266.27 81.5112 254.597C78.291 242.722 75.8759 227.628 84.9327 204.08C93.9896 180.532 121.764 169.463 121.764 169.463Z" fill="url(#paint39_linear)"/>
<path d="M97.0084 312.763C102.241 289.819 108.682 265.063 120.556 255.403C132.431 245.742 156.18 233.063 156.18 233.063C156.18 233.063 137.664 231.05 127.6 234.471C117.739 237.692 86.744 264.862 83.9263 286.8C81.1087 308.737 76.8821 354.022 82.1149 368.714C83.1212 371.33 92.7819 409.168 93.5869 411.382C97.6122 422.451 98.8197 426.879 98.8197 426.879C98.8197 426.879 89.1592 384.211 89.5617 370.726C90.3667 351.405 93.9895 326.247 97.0084 312.763Z" fill="url(#paint40_linear)"/>
<path d="M103.248 315.58C106.87 299.681 111.902 281.768 118.745 268.485C127.198 252.183 137.463 242.321 141.689 240.509C141.689 240.509 109.889 252.988 102.04 264.46C94.191 275.73 85.3354 308.536 85.1341 329.87C84.9328 351.204 86.3417 367.506 96.6061 415.206C96.6061 415.206 90.7695 384.815 92.1783 360.663C93.3859 339.732 100.833 326.046 103.248 315.58Z" fill="url(#paint41_linear)"/>
<path d="M120.958 262.648C120.958 262.648 148.129 239.503 161.614 239.302C175.098 239.302 185.765 245.138 185.765 245.138L190.797 234.874C190.797 234.874 179.727 227.629 164.834 226.421C149.94 225.213 131.625 247.956 120.958 262.648Z" fill="url(#paint42_linear)"/>
<path d="M121.965 260.233C118.946 264.661 115.323 271.906 111.902 280.762C108.48 289.618 96.002 338.524 96.002 338.524C97.6121 332.285 103.046 318.599 104.656 311.757C106.266 304.914 117.537 270.699 121.361 263.655C125.185 256.61 143.097 236.685 155.173 230.446C165.035 225.415 176.507 228.836 176.507 228.836C165.438 224.408 160.406 226.421 153.362 229.44C142.695 234.069 124.984 255.805 121.965 260.233Z" fill="url(#paint43_linear)"/>
<path d="M95.5997 276.937C91.7757 285.592 86.1403 308.536 85.134 321.618C84.7315 327.656 84.5302 331.882 85.134 341.744C85.134 341.744 85.7378 330.473 85.9391 327.454C86.7442 304.108 100.027 270.698 102.241 266.069C105.663 259.226 116.732 252.182 116.732 252.182C107.877 256.811 105.864 259.428 103.248 262.447C100.833 265.466 99.625 268.283 95.5997 276.937Z" fill="url(#paint44_linear)"/>
<path d="M238.295 248.56C232.66 250.17 222.194 246.145 218.773 243.126C206.496 232.66 220.182 277.139 220.182 277.139C220.182 277.139 252.585 280.762 243.528 265.869C238.899 258.221 240.308 247.956 238.295 248.56Z" fill="url(#paint45_linear)"/>
<path d="M215.955 274.322C208.911 273.517 234.27 289.014 240.308 305.517C246.346 322.021 265.466 380.79 265.466 380.79C265.466 380.79 271.102 312.763 233.868 272.51C233.868 272.309 223.201 275.127 215.955 274.322Z" fill="url(#paint46_linear)"/>
<path d="M173.488 200.457C170.671 199.048 174.092 205.489 174.092 205.489C174.092 205.489 179.325 216.76 181.136 224.408C182.545 230.244 185.564 258.421 188.382 276.132C190.394 288.812 197.64 334.498 200.055 344.159C202.47 353.82 208.911 374.348 214.747 383.204C214.747 383.204 195.023 286.397 193.816 264.056C192.608 241.716 181.941 213.741 177.715 207.501L173.488 200.457Z" fill="url(#paint47_linear)"/>
<path d="M175.3 201.665C174.495 201.262 174.092 200.658 173.488 200.457C173.488 200.457 178.721 210.52 182.143 222.395C185.363 234.269 194.621 325.441 202.068 349.794C209.716 373.946 216.357 388.034 216.357 388.034C216.357 388.034 209.716 342.348 207.904 308.737C206.093 275.126 201.866 206.093 201.866 206.093C201.866 206.093 182.344 205.489 175.3 201.665Z" fill="url(#paint48_linear)"/>
<path d="M200.055 205.892C200.055 205.892 206.093 290.02 208.508 316.586C210.923 343.153 214.747 379.984 216.357 388.035C216.357 388.035 217.968 335.304 218.974 308.536C219.98 281.768 222.999 216.357 218.169 199.652C215.955 191.602 212.936 188.784 212.936 188.784C212.936 188.784 208.911 201.866 200.055 205.892Z" fill="url(#paint49_linear)"/>
</g>
<defs>
<linearGradient id="paint0_linear" x1="49.5106" y1="97.3863" x2="112.697" y2="197.187" gradientUnits="userSpaceOnUse">
<stop stop-color="#74B49B"/>
<stop offset="1" stop-color="#5C8D89"/>
</linearGradient>
<linearGradient id="paint1_linear" x1="58.0391" y1="99.2481" x2="122.999" y2="189.562" gradientUnits="userSpaceOnUse">
<stop stop-color="#74B49B"/>
<stop offset="1" stop-color="#5C8D89"/>
</linearGradient>
<linearGradient id="paint2_linear" x1="155.501" y1="162.778" x2="162.525" y2="166.261" gradientUnits="userSpaceOnUse">
<stop stop-color="#74B49B"/>
<stop offset="1" stop-color="#5C8D89"/>
</linearGradient>
<linearGradient id="paint3_linear" x1="110.997" y1="122.613" x2="157.491" y2="166.999" gradientUnits="userSpaceOnUse">
<stop stop-color="#74B49B"/>
<stop offset="1" stop-color="#5C8D89"/>
</linearGradient>
<linearGradient id="paint4_linear" x1="154.217" y1="25.4722" x2="228.683" y2="43.6514" gradientUnits="userSpaceOnUse">
<stop stop-color="#74B49B"/>
<stop offset="1" stop-color="#5C8D89"/>
</linearGradient>
<linearGradient id="paint5_linear" x1="158.91" y1="35.2206" x2="227.538" y2="52.6319" gradientUnits="userSpaceOnUse">
<stop stop-color="#74B49B"/>
<stop offset="1" stop-color="#5C8D89"/>
</linearGradient>
<linearGradient id="paint6_linear" x1="192.407" y1="172.898" x2="201.653" y2="180.892" gradientUnits="userSpaceOnUse">
<stop stop-color="#74B49B"/>
<stop offset="1" stop-color="#5C8D89"/>
</linearGradient>
<linearGradient id="paint7_linear" x1="169.312" y1="104.172" x2="217.92" y2="122.08" gradientUnits="userSpaceOnUse">
<stop stop-color="#74B49B"/>
<stop offset="1" stop-color="#5C8D89"/>
</linearGradient>
<linearGradient id="paint8_linear" x1="181.087" y1="17.1703" x2="276.819" y2="49.6156" gradientUnits="userSpaceOnUse">
<stop stop-color="#74B49B"/>
<stop offset="1" stop-color="#5C8D89"/>
</linearGradient>
<linearGradient id="paint9_linear" x1="188.468" y1="25.7237" x2="264.343" y2="47.4039" gradientUnits="userSpaceOnUse">
<stop stop-color="#74B49B"/>
<stop offset="1" stop-color="#5C8D89"/>
</linearGradient>
<linearGradient id="paint10_linear" x1="204.659" y1="162.419" x2="213.019" y2="166.231" gradientUnits="userSpaceOnUse">
<stop stop-color="#74B49B"/>
<stop offset="1" stop-color="#5C8D89"/>
</linearGradient>
<linearGradient id="paint11_linear" x1="202.496" y1="90.2285" x2="213.882" y2="91.0436" gradientUnits="userSpaceOnUse">
<stop stop-color="#74B49B"/>
<stop offset="1" stop-color="#5C8D89"/>
</linearGradient>
<linearGradient id="paint12_linear" x1="171.91" y1="273.372" x2="216.575" y2="281.818" gradientUnits="userSpaceOnUse">
<stop stop-color="#74B49B"/>
<stop offset="1" stop-color="#5C8D89"/>
</linearGradient>
<linearGradient id="paint13_linear" x1="183.999" y1="277.706" x2="235.032" y2="289.543" gradientUnits="userSpaceOnUse">
<stop stop-color="#74B49B"/>
<stop offset="1" stop-color="#5C8D89"/>
</linearGradient>
<linearGradient id="paint14_linear" x1="211.19" y1="73.7948" x2="357.722" y2="160.13" gradientUnits="userSpaceOnUse">
<stop stop-color="#74B49B"/>
<stop offset="1" stop-color="#5C8D89"/>
</linearGradient>
<linearGradient id="paint15_linear" x1="221.798" y1="72.7321" x2="379.47" y2="200.164" gradientUnits="userSpaceOnUse">
<stop stop-color="#74B49B"/>
<stop offset="1" stop-color="#5C8D89"/>
</linearGradient>
<linearGradient id="paint16_linear" x1="60.895" y1="148.458" x2="191.353" y2="289.071" gradientUnits="userSpaceOnUse">
<stop stop-color="#74B49B"/>
<stop offset="1" stop-color="#5C8D89"/>
</linearGradient>
<linearGradient id="paint17_linear" x1="23.9248" y1="151.617" x2="139.203" y2="310.133" gradientUnits="userSpaceOnUse">
<stop stop-color="#74B49B"/>
<stop offset="1" stop-color="#5C8D89"/>
</linearGradient>
<linearGradient id="paint18_linear" x1="16.93" y1="166.481" x2="75.4081" y2="298.076" gradientUnits="userSpaceOnUse">
<stop stop-color="#74B49B"/>
<stop offset="1" stop-color="#5C8D89"/>
</linearGradient>
<linearGradient id="paint19_linear" x1="12.9815" y1="181.884" x2="110.734" y2="338.096" gradientUnits="userSpaceOnUse">
<stop stop-color="#74B49B"/>
<stop offset="1" stop-color="#5C8D89"/>
</linearGradient>
<linearGradient id="paint20_linear" x1="111.613" y1="236.119" x2="211.562" y2="276.337" gradientUnits="userSpaceOnUse">
<stop stop-color="#74B49B"/>
<stop offset="1" stop-color="#5C8D89"/>
</linearGradient>
<linearGradient id="paint21_linear" x1="110.571" y1="250.642" x2="227.238" y2="315.635" gradientUnits="userSpaceOnUse">
<stop stop-color="#74B49B"/>
<stop offset="1" stop-color="#5C8D89"/>
</linearGradient>
<linearGradient id="paint22_linear" x1="155.693" y1="246.435" x2="176.888" y2="291.713" gradientUnits="userSpaceOnUse">
<stop stop-color="#74B49B"/>
<stop offset="1" stop-color="#5C8D89"/>
</linearGradient>
<linearGradient id="paint23_linear" x1="155.715" y1="264.13" x2="159.81" y2="285.615" gradientUnits="userSpaceOnUse">
<stop stop-color="#74B49B"/>
<stop offset="1" stop-color="#5C8D89"/>
</linearGradient>
<linearGradient id="paint24_linear" x1="130.804" y1="284.131" x2="157.1" y2="287.488" gradientUnits="userSpaceOnUse">
<stop stop-color="#74B49B"/>
<stop offset="1" stop-color="#5C8D89"/>
</linearGradient>
<linearGradient id="paint25_linear" x1="139.855" y1="269.038" x2="166.11" y2="272.005" gradientUnits="userSpaceOnUse">
<stop stop-color="#74B49B"/>
<stop offset="1" stop-color="#5C8D89"/>
</linearGradient>
<linearGradient id="paint26_linear" x1="138.909" y1="257.661" x2="181.765" y2="264.952" gradientUnits="userSpaceOnUse">
<stop stop-color="#74B49B"/>
<stop offset="1" stop-color="#5C8D89"/>
</linearGradient>
<linearGradient id="paint27_linear" x1="110.342" y1="188.819" x2="155.89" y2="256.718" gradientUnits="userSpaceOnUse">
<stop stop-color="#74B49B"/>
<stop offset="1" stop-color="#5C8D89"/>
</linearGradient>
<linearGradient id="paint28_linear" x1="109.751" y1="210.894" x2="126.946" y2="258.156" gradientUnits="userSpaceOnUse">
<stop stop-color="#74B49B"/>
<stop offset="1" stop-color="#5C8D89"/>
</linearGradient>
<linearGradient id="paint29_linear" x1="63.8507" y1="229.559" x2="116.816" y2="240.462" gradientUnits="userSpaceOnUse">
<stop stop-color="#74B49B"/>
<stop offset="1" stop-color="#5C8D89"/>
</linearGradient>
<linearGradient id="paint30_linear" x1="64.8693" y1="212.786" x2="137.065" y2="231.573" gradientUnits="userSpaceOnUse">
<stop stop-color="#74B49B"/>
<stop offset="1" stop-color="#5C8D89"/>
</linearGradient>
<linearGradient id="paint31_linear" x1="66.0769" y1="200.72" x2="164.214" y2="233.966" gradientUnits="userSpaceOnUse">
<stop stop-color="#74B49B"/>
<stop offset="1" stop-color="#5C8D89"/>
</linearGradient>
<linearGradient id="paint32_linear" x1="170.001" y1="144.331" x2="224.73" y2="171.623" gradientUnits="userSpaceOnUse">
<stop stop-color="#74B49B"/>
<stop offset="1" stop-color="#5C8D89"/>
</linearGradient>
<linearGradient id="paint33_linear" x1="190.872" y1="144.476" x2="219.377" y2="150.739" gradientUnits="userSpaceOnUse">
<stop stop-color="#74B49B"/>
<stop offset="1" stop-color="#5C8D89"/>
</linearGradient>
<linearGradient id="paint34_linear" x1="207.938" y1="112.091" x2="212.285" y2="143.59" gradientUnits="userSpaceOnUse">
<stop stop-color="#74B49B"/>
<stop offset="1" stop-color="#5C8D89"/>
</linearGradient>
<linearGradient id="paint35_linear" x1="190.86" y1="121.827" x2="194.431" y2="152.099" gradientUnits="userSpaceOnUse">
<stop stop-color="#74B49B"/>
<stop offset="1" stop-color="#5C8D89"/>
</linearGradient>
<linearGradient id="paint36_linear" x1="178.351" y1="120.33" x2="191.328" y2="179.788" gradientUnits="userSpaceOnUse">
<stop stop-color="#74B49B"/>
<stop offset="1" stop-color="#5C8D89"/>
</linearGradient>
<linearGradient id="paint37_linear" x1="68.5933" y1="186.073" x2="144.269" y2="214.348" gradientUnits="userSpaceOnUse">
<stop stop-color="#74B49B"/>
<stop offset="1" stop-color="#5C8D89"/>
</linearGradient>
<linearGradient id="paint38_linear" x1="86.1849" y1="175.019" x2="153.868" y2="272.532" gradientUnits="userSpaceOnUse">
<stop stop-color="#74B49B"/>
<stop offset="1" stop-color="#5C8D89"/>
</linearGradient>
<linearGradient id="paint39_linear" x1="68.3143" y1="182.425" x2="150.455" y2="215.371" gradientUnits="userSpaceOnUse">
<stop stop-color="#74B49B"/>
<stop offset="1" stop-color="#5C8D89"/>
</linearGradient>
<linearGradient id="paint40_linear" x1="84.4147" y1="250.7" x2="196.065" y2="293.465" gradientUnits="userSpaceOnUse">
<stop stop-color="#74B49B"/>
<stop offset="1" stop-color="#5C8D89"/>
</linearGradient>
<linearGradient id="paint41_linear" x1="88.6525" y1="256.887" x2="174.73" y2="284.001" gradientUnits="userSpaceOnUse">
<stop stop-color="#74B49B"/>
<stop offset="1" stop-color="#5C8D89"/>
</linearGradient>
<linearGradient id="paint42_linear" x1="125.323" y1="229.775" x2="151.237" y2="278.307" gradientUnits="userSpaceOnUse">
<stop stop-color="#74B49B"/>
<stop offset="1" stop-color="#5C8D89"/>
</linearGradient>
<linearGradient id="paint43_linear" x1="101.034" y1="236.787" x2="191.607" y2="299.968" gradientUnits="userSpaceOnUse">
<stop stop-color="#74B49B"/>
<stop offset="1" stop-color="#5C8D89"/>
</linearGradient>
<linearGradient id="paint44_linear" x1="86.7516" y1="260.579" x2="134.48" y2="277.156" gradientUnits="userSpaceOnUse">
<stop stop-color="#74B49B"/>
<stop offset="1" stop-color="#5C8D89"/>
</linearGradient>
<linearGradient id="paint45_linear" x1="215.626" y1="244.906" x2="246.169" y2="270.878" gradientUnits="userSpaceOnUse">
<stop stop-color="#74B49B"/>
<stop offset="1" stop-color="#5C8D89"/>
</linearGradient>
<linearGradient id="paint46_linear" x1="217.92" y1="282.652" x2="288.459" y2="314.993" gradientUnits="userSpaceOnUse">
<stop stop-color="#74B49B"/>
<stop offset="1" stop-color="#5C8D89"/>
</linearGradient>
<linearGradient id="paint47_linear" x1="175.024" y1="217.407" x2="242.468" y2="232.602" gradientUnits="userSpaceOnUse">
<stop stop-color="#74B49B"/>
<stop offset="1" stop-color="#5C8D89"/>
</linearGradient>
<linearGradient id="paint48_linear" x1="176.168" y1="218.043" x2="244.49" y2="233.231" gradientUnits="userSpaceOnUse">
<stop stop-color="#74B49B"/>
<stop offset="1" stop-color="#5C8D89"/>
</linearGradient>
<linearGradient id="paint49_linear" x1="201.354" y1="207.464" x2="235.749" y2="210.953" gradientUnits="userSpaceOnUse">
<stop stop-color="#74B49B"/>
<stop offset="1" stop-color="#5C8D89"/>
</linearGradient>
</defs>
</svg>
