<svg width="17" height="22" viewBox="0 0 17 22" fill="none" xmlns="http://www.w3.org/2000/svg">
<path d="M14.7186 9.68429C14.5928 9.2551 14.4111 8.93953 14.0264 8.69341C10.8575 6.39686 7.69987 4.07759 4.53099 1.78104C3.63695 1.14258 2.84436 0.469401 1.83809 0.00158055C1.62716 0.942669 1.56312 1.92793 1.45385 2.89089C0.85382 8.44185 0.423089 13.9915 0.173065 19.5738C0.141574 20.2079 0.143889 20.8305 0.146215 21.453C5.62352 19.295 10.8736 16.7425 16.2372 14.359C15.7348 12.8121 15.2098 11.254 14.7186 9.68429ZM13.2091 10.4654C13.7195 11.1407 13.9594 11.9086 14.0755 12.7567C12.5273 12.2476 10.9233 11.9088 9.43132 11.3428C10.6375 10.9489 11.9226 10.509 13.2091 10.4654ZM1.72399 17.7963C2.01248 13.4475 2.38002 9.10949 2.69113 4.77187C2.7241 4.53392 2.74566 4.26209 2.77863 4.02414C4.0286 6.27857 4.98584 8.72763 6.08934 11.0511C4.73243 13.4044 3.228 15.5438 1.72399 17.7963ZM6.33767 8.03828C5.6776 6.58307 4.99492 5.11672 4.53775 3.59206C7.11715 5.20259 9.51712 7.12008 11.9843 8.90124C10.8349 9.40795 9.62829 9.68871 8.39904 9.95833C8.00423 10.0179 7.66606 10.1336 7.29302 9.97799C6.88447 9.38115 6.64477 8.66984 6.33767 8.03828ZM3.12656 18.6007C4.1119 16.4879 5.61739 14.6315 6.89673 12.6636C7.15479 12.2542 7.38052 12.2525 7.8212 12.385C9.56151 12.9605 11.3464 13.3885 13.0643 14.0094C9.80859 15.6526 6.45056 17.1042 3.12656 18.6007Z" fill="url(#paint0_linear)"/>
<defs>
<linearGradient id="paint0_linear" x1="2.09008" y1="2.21329" x2="10.3643" y2="24.2151" gradientUnits="userSpaceOnUse">
<stop stop-color="#FF9E2C"/>
<stop offset="1" stop-color="#F07129"/>
</linearGradient>
</defs>
</svg>
