<svg width="41" height="37" viewBox="0 0 41 37" fill="none" xmlns="http://www.w3.org/2000/svg">
<g opacity="0.8">
<path d="M2.77557 27.5076C1.70486 25.8295 0.248315 22.3062 3.88846 19.1015C8.91254 14.6731 12.3405 22.9143 12.3405 22.9143L11.9813 23.1162C6.08143 19.2255 4.17653 25.2164 3.69342 27.6112L2.77557 27.5076Z" fill="#FFF68E"/>
<path d="M20.6593 10.8858C20.6593 10.8858 23.8247 11.4109 26.6789 12.8505L26.668 13.5325C19.8637 12.4155 18.7518 13.3173 20.5333 15.0661C25.8179 20.3411 23.5284 20.6902 23.5284 20.6902L16.6168 18.8596C16.6469 18.8304 9.73826 9.3769 20.6593 10.8858Z" fill="#FEF36C"/>
<path d="M1.45607 12.0057C0.809405 9.71108 0.489379 7.39221 0.495094 5.10835C0.517141 3.68495 0.860544 0.665111 2.8848 0.194164C5.56419 -0.443976 6.44716 1.91382 6.44716 1.91382C6.5028 2.15203 6.55843 2.39024 6.64372 2.62893C9.8798 13.9239 20.5658 21.0702 31.8201 20.2469C33.8676 20.1916 40.2013 19.1686 40.5514 21.4583C40.8733 23.6586 38.2015 25.7206 37.9916 25.8655C36.0745 27.0797 33.9238 28.0528 31.6295 28.727C18.6987 32.4593 5.17054 24.9696 1.45607 12.0057Z" fill="#FFCD00"/>
<path d="M3.83216 7.74026C3.10088 5.23703 2.8149 2.71125 2.88427 0.220792C5.56353 -0.389031 6.4459 1.93864 6.4459 1.93864C6.50143 2.17681 6.55696 2.41499 6.64214 2.65364C6.7546 3.04103 6.86754 3.39877 7.00966 3.78664C7.03742 3.90573 7.09484 4.02528 7.15226 4.14484C7.23743 4.38349 7.32214 4.6518 7.43697 4.89092C7.49391 5.04014 7.55132 5.1597 7.60827 5.30891C7.69392 5.51791 7.7791 5.75656 7.8944 5.96603C7.95134 6.11525 8.03794 6.26493 8.09536 6.38449C8.18101 6.59349 8.29633 6.80296 8.41163 7.01243C8.46858 7.16164 8.55563 7.28168 8.61258 7.43089C8.72788 7.64036 8.84319 7.84983 8.95897 8.02964C9.04604 8.14968 9.10298 8.2989 9.19005 8.41893C9.33501 8.62888 9.44985 8.86799 9.5948 9.07794C9.65269 9.16784 9.71011 9.2874 9.79766 9.37778C10.0005 9.67763 10.2029 10.0071 10.4359 10.2778C10.4942 10.3381 10.5521 10.428 10.5808 10.4878C10.755 10.7278 10.9296 10.9382 11.1037 11.1783C11.1908 11.2983 11.2778 11.4184 11.395 11.5092C11.5405 11.6895 11.6864 11.8401 11.8318 12.0204C11.9485 12.1409 12.0356 12.261 12.1523 12.3815C12.2982 12.5321 12.4441 12.6827 12.59 12.8334C12.7068 12.9539 12.8235 13.0744 12.9402 13.1949C13.0861 13.3455 13.2325 13.4665 13.3784 13.6172C13.4951 13.7377 13.6415 13.8586 13.7582 13.9792C13.9046 14.1001 14.0505 14.2508 14.1969 14.3717C14.3136 14.4923 14.4605 14.5836 14.5772 14.7041C14.7236 14.8251 14.8991 14.9762 15.0455 15.0972C15.1627 15.188 15.3091 15.309 15.4263 15.3998C15.6898 15.6117 15.9831 15.824 16.2768 16.0066C16.4236 16.098 16.57 16.2189 16.7169 16.3103C16.8637 16.4016 17.0101 16.5226 17.1866 16.6144C17.3631 16.7062 17.5095 16.8271 17.686 16.9189C17.8328 17.0103 17.9797 17.1016 18.1265 17.1929C18.303 17.2847 18.4795 17.3765 18.656 17.4683C18.8029 17.5597 18.9502 17.6213 19.0971 17.7126C19.2736 17.8044 19.4501 17.8962 19.6266 17.988C19.7739 18.0497 19.9212 18.1114 20.0681 18.2027C20.2446 18.2945 20.4507 18.3868 20.6277 18.4489C20.775 18.5106 20.8927 18.5718 21.0405 18.6038C21.2467 18.6961 21.4533 18.7587 21.6298 18.8505C21.7479 18.8821 21.8656 18.9433 21.9837 18.9748C22.7505 19.254 23.5478 19.4743 24.3452 19.6947C24.4633 19.7262 24.5815 19.7578 24.6996 19.7893C24.9359 19.8524 25.143 19.8854 25.3798 19.9188C25.4979 19.9504 25.6457 19.9824 25.7643 19.9843C26.0011 20.0177 26.2082 20.0507 26.4449 20.0841C26.5927 20.1161 26.7113 20.118 26.8591 20.15C27.0959 20.1835 27.303 20.2164 27.5402 20.2202C27.6588 20.2221 27.8067 20.2541 27.9549 20.2565C28.1917 20.2899 28.4289 20.2937 28.6657 20.3271C28.7843 20.329 28.9029 20.3309 29.0215 20.3328C29.2587 20.3366 29.5252 20.3705 29.7624 20.3743C29.8217 20.3752 29.881 20.3762 29.9403 20.3771C30.5927 20.3875 31.2456 20.3683 31.8989 20.3194C33.9464 20.2631 40.2807 19.237 40.6298 21.5264C38.6518 22.8 36.47 23.833 34.0864 24.5069C21.036 28.1844 7.54075 20.7021 3.83216 7.74026Z" fill="#FFE266"/>
<path d="M1.45607 12.0057C0.809405 9.71108 0.489379 7.39221 0.495094 5.10835C0.517141 3.68495 0.860544 0.665111 2.8848 0.194164C5.56419 -0.443976 6.44716 1.91382 6.44716 1.91382C6.5028 2.15203 6.55843 2.39024 6.64372 2.62893C9.8798 13.9239 20.5658 21.0702 31.8201 20.2469C33.8676 20.1916 40.2013 19.1686 40.5514 21.4583C40.8733 23.6586 38.2015 25.7206 37.9916 25.8655C36.0745 27.0797 33.9238 28.0528 31.6295 28.727C18.6987 32.4593 5.17054 24.9696 1.45607 12.0057Z" fill="#FFCD00"/>
<path d="M1.45607 12.0057C0.809405 9.71108 0.489379 7.39221 0.495094 5.10835C0.517141 3.68495 0.860544 0.665111 2.8848 0.194164C5.56419 -0.443976 6.44716 1.91382 6.44716 1.91382C6.5028 2.15203 6.55843 2.39024 6.64372 2.62893C9.8798 13.9239 20.5658 21.0702 31.8201 20.2469C33.8676 20.1916 40.2013 19.1686 40.5514 21.4583C40.8733 23.6586 38.2015 25.7206 37.9916 25.8655C36.0745 27.0797 33.9238 28.0528 31.6295 28.727C18.6987 32.4593 5.17054 24.9696 1.45607 12.0057Z" fill="#FFCD00"/>
<path d="M3.83216 7.74026C3.10088 5.23703 2.8149 2.71125 2.88427 0.220792C5.56353 -0.389031 6.4459 1.93864 6.4459 1.93864C6.50143 2.17681 6.55696 2.41499 6.64214 2.65364C6.7546 3.04103 6.86754 3.39877 7.00966 3.78664C7.03742 3.90573 7.09484 4.02528 7.15226 4.14484C7.23743 4.38349 7.32214 4.6518 7.43697 4.89092C7.49391 5.04014 7.55132 5.1597 7.60827 5.30891C7.69392 5.51791 7.7791 5.75656 7.8944 5.96603C7.95134 6.11525 8.03794 6.26493 8.09536 6.38449C8.18101 6.59349 8.29633 6.80296 8.41163 7.01243C8.46858 7.16164 8.55563 7.28168 8.61258 7.43089C8.72788 7.64036 8.84319 7.84983 8.95897 8.02964C9.04604 8.14968 9.10298 8.2989 9.19005 8.41893C9.33501 8.62888 9.44985 8.86799 9.5948 9.07794C9.65269 9.16784 9.71011 9.2874 9.79766 9.37778C10.0005 9.67763 10.2029 10.0071 10.4359 10.2778C10.4942 10.3381 10.5521 10.428 10.5808 10.4878C10.755 10.7278 10.9296 10.9382 11.1037 11.1783C11.1908 11.2983 11.2778 11.4184 11.395 11.5092C11.5405 11.6895 11.6864 11.8401 11.8318 12.0204C11.9485 12.1409 12.0356 12.261 12.1523 12.3815C12.2982 12.5321 12.4441 12.6827 12.59 12.8334C12.7068 12.9539 12.8235 13.0744 12.9402 13.1949C13.0861 13.3455 13.2325 13.4665 13.3784 13.6172C13.4951 13.7377 13.6415 13.8586 13.7582 13.9792C13.9046 14.1001 14.0505 14.2508 14.1969 14.3717C14.3136 14.4923 14.4605 14.5836 14.5772 14.7041C14.7236 14.8251 14.8991 14.9762 15.0455 15.0972C15.1627 15.188 15.3091 15.309 15.4263 15.3998C15.6898 15.6117 15.9831 15.824 16.2768 16.0066C16.4236 16.098 16.57 16.2189 16.7169 16.3103C16.8637 16.4016 17.0101 16.5226 17.1866 16.6144C17.3631 16.7062 17.5095 16.8271 17.686 16.9189C17.8328 17.0103 17.9797 17.1016 18.1265 17.1929C18.303 17.2847 18.4795 17.3765 18.656 17.4683C18.8029 17.5597 18.9502 17.6213 19.0971 17.7126C19.2736 17.8044 19.4501 17.8962 19.6266 17.988C19.7739 18.0497 19.9212 18.1114 20.0681 18.2027C20.2446 18.2945 20.4507 18.3868 20.6277 18.4489C20.775 18.5106 20.8927 18.5718 21.0405 18.6038C21.2467 18.6961 21.4533 18.7587 21.6298 18.8505C21.7479 18.8821 21.8656 18.9433 21.9837 18.9748C22.7505 19.254 23.5478 19.4743 24.3452 19.6947C24.4633 19.7262 24.5815 19.7578 24.6996 19.7893C24.9359 19.8524 25.143 19.8854 25.3798 19.9188C25.4979 19.9504 25.6457 19.9824 25.7643 19.9843C26.0011 20.0177 26.2082 20.0507 26.4449 20.0841C26.5927 20.1161 26.7113 20.118 26.8591 20.15C27.0959 20.1835 27.303 20.2164 27.5402 20.2202C27.6588 20.2221 27.8067 20.2541 27.9549 20.2565C28.1917 20.2899 28.4289 20.2937 28.6657 20.3271C28.7843 20.329 28.9029 20.3309 29.0215 20.3328C29.2587 20.3366 29.5252 20.3705 29.7624 20.3743C29.8217 20.3752 29.881 20.3762 29.9403 20.3771C30.5927 20.3875 31.2456 20.3683 31.8989 20.3194C33.9464 20.2631 40.2807 19.237 40.6298 21.5264C38.6518 22.8 36.47 23.833 34.0864 24.5069C21.036 28.1844 7.54075 20.7021 3.83216 7.74026Z" fill="#FFE266"/>
<path d="M35.0476 20.0433C37.5117 19.9046 40.3284 19.9792 40.5415 21.4953C40.8624 23.6954 38.1896 25.7587 37.9796 25.9037C37.8295 26.0199 37.6501 26.106 37.5004 26.1926L35.0476 20.0433Z" fill="#895140"/>
<path d="M40.5418 21.4659C40.5714 21.4664 40.5714 21.4664 40.5418 21.4659C39.2826 22.306 37.9072 22.996 36.4738 23.596L35.0479 20.0139C35.1962 20.0162 35.3152 19.9885 35.4635 19.9908C35.4932 19.9913 35.5525 19.9923 35.5821 19.9927C35.7008 19.9946 35.7897 19.9961 35.9088 19.9683C35.9384 19.9688 35.9978 19.9697 36.0274 19.9702C36.324 19.9749 36.5913 19.9495 36.8878 19.9542C36.9175 19.9547 36.9768 19.9557 37.0065 19.9561C37.0954 19.9576 37.214 19.9595 37.303 19.9609C37.3327 19.9613 37.392 19.9623 37.4216 19.9628C37.5402 19.9647 37.6292 19.9661 37.7473 19.9976C37.777 19.9981 37.8066 19.9986 37.8363 19.999C37.9549 20.0009 38.1027 20.0329 38.2213 20.0348C38.251 20.0353 38.2806 20.0358 38.3399 20.0367C38.4289 20.0381 38.5174 20.0692 38.6064 20.0706C38.636 20.0711 38.6953 20.0721 38.7245 20.1022C38.813 20.1333 38.9019 20.1347 38.9608 20.1653C38.9904 20.1658 39.0201 20.1662 39.0493 20.1963C39.1674 20.2279 39.2559 20.259 39.3444 20.29C39.3741 20.2905 39.4032 20.3206 39.4329 20.3211C39.4917 20.3517 39.5802 20.3828 39.639 20.4134C39.6687 20.4139 39.6979 20.444 39.7275 20.4445C39.7864 20.4751 39.8452 20.5057 39.904 20.5363C39.9337 20.5367 39.9629 20.5669 39.9925 20.5673C40.0509 20.6276 40.1394 20.6587 40.1977 20.7189L40.2269 20.749C40.2853 20.8093 40.3145 20.8394 40.3432 20.8992C40.3723 20.9293 40.3719 20.959 40.4015 20.9594C40.4302 21.0192 40.4594 21.0494 40.4881 21.1091C40.4877 21.1388 40.5168 21.1689 40.5168 21.1689C40.5145 21.3172 40.5427 21.4066 40.5418 21.4659Z" fill="#A05F4B"/>
<path d="M18.9799 17.6217L12.6163 20.4864L11.731 25.7816C6.91601 22.6794 3.16586 17.9034 1.45109 11.9734C0.805463 9.6792 0.486494 7.36051 0.493255 5.07669C0.515955 3.6533 0.860747 0.633341 2.88525 0.161384C5.56498 -0.478092 6.44688 1.87922 6.44688 1.87922C6.50241 2.1174 6.55793 2.35558 6.64311 2.59423C8.5814 9.38795 13.1839 14.6521 18.9799 17.6217Z" fill="#FEF36C"/>
<path d="M12.6158 20.5161C8.51251 17.4252 5.34929 13.0442 3.83216 7.74026C3.10088 5.23703 2.8149 2.71125 2.88427 0.220792C5.56353 -0.389031 6.4459 1.93864 6.4459 1.93864C6.50143 2.17681 6.55696 2.41499 6.64214 2.65364C6.7546 3.04103 6.86754 3.39877 7.00966 3.78664C7.03742 3.90573 7.09484 4.02528 7.15226 4.14484C7.23743 4.38349 7.32214 4.6518 7.43697 4.89092C7.49391 5.04014 7.55132 5.1597 7.60827 5.30891C7.69392 5.51791 7.7791 5.75656 7.8944 5.96603C7.95134 6.11525 8.03795 6.26493 8.09536 6.38449C8.18101 6.59349 8.29633 6.80296 8.41163 7.01243C8.46858 7.16164 8.55563 7.28168 8.61258 7.43089C8.72788 7.64036 8.84319 7.84983 8.95897 8.02964C9.04604 8.14968 9.10298 8.2989 9.19005 8.41893C9.33501 8.62888 9.44985 8.86799 9.5948 9.07794C9.65269 9.16784 9.71011 9.2874 9.79766 9.37778C10.0005 9.67763 10.2029 10.0071 10.4359 10.2778C10.4942 10.3381 10.5521 10.428 10.5808 10.4878C10.755 10.7278 10.9296 10.9382 11.1037 11.1783C11.1908 11.2983 11.2778 11.4184 11.395 11.5092C11.5405 11.6895 11.6864 11.8401 11.8318 12.0204C11.9485 12.1409 12.0356 12.261 12.1523 12.3815C12.2982 12.5321 12.4441 12.6827 12.59 12.8334C12.7068 12.9539 12.8235 13.0744 12.9402 13.1949C13.0861 13.3455 13.2325 13.4665 13.3784 13.6172C13.4951 13.7377 13.6415 13.8586 13.7582 13.9792C13.9046 14.1001 14.0505 14.2508 14.1969 14.3717C14.3136 14.4923 14.4605 14.5836 14.5772 14.7041C14.7236 14.8251 14.8991 14.9762 15.0455 15.0972C15.1627 15.188 15.3091 15.309 15.4263 15.3998C15.6898 15.6117 15.9831 15.824 16.2768 16.0066C16.4236 16.098 16.57 16.2189 16.7169 16.3103C16.8637 16.4016 17.0101 16.5226 17.1866 16.6144C17.3631 16.7062 17.5095 16.8271 17.686 16.9189C17.8328 17.0103 17.9797 17.1016 18.1265 17.1929C18.303 17.2847 18.4795 17.3765 18.656 17.4683C18.7737 17.5295 18.921 17.5912 19.0382 17.682L12.6158 20.5161Z" fill="#FFF68E"/>
<path d="M21.5206 34.9848L20.8761 36.3389C16.1984 35.7897 7.18423 33.7476 6.47405 26.2023C5.50989 15.9834 18.9792 17.6516 18.9792 17.6516C10.8883 24.671 17.7139 31.8986 21.5206 34.9848Z" fill="#FFF7B0"/>
</g>
</svg>
