<svg width="47" height="59" viewBox="0 0 47 59" fill="none" xmlns="http://www.w3.org/2000/svg">
<path d="M43.758 30.0902C43.5201 28.883 43.1005 27.9731 42.1077 27.2031C33.9956 20.1226 25.9199 12.9827 17.8079 5.90219C15.5169 3.93053 13.5125 1.88893 10.8715 0.35692C10.0596 2.88314 9.63919 5.5669 9.1004 8.17832C6.07635 23.2392 3.51651 38.3387 1.44372 53.5724C1.1998 55.3021 1.05139 57.0084 0.903006 58.7148C16.4477 54.1633 31.4679 48.4746 46.7571 43.2768C45.765 38.9132 44.7137 34.5134 43.758 30.0902ZM39.4277 31.8552C40.6584 33.8325 41.1249 35.9963 41.232 38.3489C37.1164 36.5693 32.8056 35.2422 28.8582 33.3204C32.2612 32.5408 35.8917 31.655 39.4277 31.8552ZM6.13524 49.0874C8.0068 37.2432 10.0923 25.448 12.023 13.6399C12.1725 12.9961 12.2992 12.2567 12.4487 11.6128C15.3133 18.1009 17.3274 25.0494 19.7734 31.6902C15.4704 37.8011 10.8163 43.2891 6.13524 49.0874ZM21.2028 23.4966C19.7559 19.3452 18.2499 15.1575 17.3762 10.8662C24.0436 15.9204 30.143 21.7711 36.4605 27.2649C33.1852 28.3676 29.8091 28.837 26.3738 29.2701C25.2772 29.3352 24.3218 29.5683 23.3384 29.0491C22.3673 27.3121 21.8873 25.3035 21.2028 23.4966ZM9.77842 51.6402C13.0036 46.0959 17.5902 41.3835 21.5849 36.3094C22.3938 35.2517 23.0127 35.3031 24.1873 35.7758C28.8128 37.7853 33.5972 39.4017 38.15 41.5301C28.8206 45.2233 19.2585 48.3659 9.77842 51.6402Z" fill="url(#paint0_linear)"/>
<defs>
<linearGradient id="paint0_linear" x1="11.0122" y1="6.47981" x2="28.2148" y2="68.8232" gradientUnits="userSpaceOnUse">
<stop stop-color="#FF9E2C"/>
<stop offset="1" stop-color="#F07129"/>
</linearGradient>
</defs>
</svg>
