<svg width="230" height="356" viewBox="0 0 230 356" fill="none" xmlns="http://www.w3.org/2000/svg">
<g clip-path="url(#clip0)">
<g opacity="0.8">
<path d="M89.4775 99.3489C87.5325 95.6585 86.1122 91.7618 85.3328 87.8793C84.8616 85.3827 84.3308 80.1023 87.6127 78.5838C91.941 76.5137 94.3878 80.2212 94.3878 80.2212C94.591 80.6068 94.7942 80.9924 94.9684 81.3229C104.688 99.4968 125.615 107.822 144.659 102.29C148.15 101.435 158.674 97.3665 160.12 101.179C161.509 104.881 157.593 109.338 157.35 109.677C154.486 112.524 151.196 114.962 147.506 116.907C126.607 128.133 100.619 120.222 89.4775 99.3489Z" fill="#FFCD00"/>
<path d="M91.9757 91.1342C89.8274 87.0582 88.3722 82.828 87.6129 78.583C91.9413 76.5129 94.388 80.2205 94.388 80.2205C94.5912 80.606 94.7944 80.9916 94.9686 81.3221C95.2879 81.928 95.6073 82.5339 95.9817 83.1108C96.0978 83.3311 96.24 83.4673 96.3561 83.6876C96.6144 84.0442 96.8467 84.4848 97.105 84.8414C97.2211 85.0617 97.3923 85.253 97.5374 85.5284C97.7957 85.885 98.025 86.1864 98.2833 86.543C98.4545 86.7342 98.5996 87.0097 98.7708 87.2009C99.0001 87.5024 99.2584 87.859 99.5428 88.1314C99.714 88.3227 99.9142 88.5691 100.085 88.7604C100.315 89.0618 100.628 89.3893 100.912 89.6618C101.084 89.8531 101.255 90.0443 101.426 90.2356C101.739 90.5631 102.053 90.8907 102.366 91.2182C102.508 91.3544 102.679 91.5457 102.822 91.6819C103.277 92.1456 103.788 92.5803 104.243 93.0441C104.357 93.1252 104.47 93.2063 104.612 93.3425C105.009 93.6961 105.378 93.9946 105.775 94.3481C106.002 94.5104 106.173 94.7017 106.37 94.8089C106.709 95.0523 106.994 95.3247 107.304 95.513C107.53 95.6753 107.757 95.8376 107.983 95.9998C108.293 96.1881 108.549 96.4055 108.888 96.6489C109.114 96.8111 109.396 96.9444 109.651 97.1617C109.962 97.35 110.272 97.5383 110.582 97.7267C110.809 97.8889 111.09 98.0222 111.371 98.1554C111.682 98.3437 111.963 98.477 112.274 98.6653C112.555 98.7985 112.781 98.9608 113.063 99.094C113.373 99.2824 113.709 99.3865 114.02 99.5749C114.301 99.7081 114.498 99.8153 114.78 99.9485C115.343 100.215 115.876 100.426 116.439 100.693C116.72 100.826 117.057 100.93 117.309 101.008C117.59 101.142 117.927 101.246 118.208 101.379C118.545 101.483 118.826 101.617 119.163 101.721C119.415 101.799 119.751 101.903 120.004 101.981C120.34 102.085 120.677 102.19 121.013 102.294C121.265 102.372 121.573 102.421 121.854 102.554C122.191 102.659 122.527 102.763 122.89 102.783C123.142 102.861 123.449 102.91 123.702 102.988C124.038 103.093 124.43 103.168 124.792 103.188C125.044 103.266 125.323 103.26 125.575 103.338C125.967 103.413 126.329 103.433 126.721 103.509C126.944 103.532 127.167 103.555 127.336 103.607C128.76 103.771 130.183 103.936 131.604 103.961C131.828 103.984 132.022 103.952 132.245 103.975C132.663 103.966 133.08 103.957 133.443 103.977C133.666 104.001 133.916 103.939 134.139 103.963C134.557 103.954 134.974 103.945 135.308 103.91C135.586 103.904 135.78 103.872 136.059 103.866C136.476 103.857 136.865 103.793 137.282 103.784C137.532 103.723 137.755 103.746 138.004 103.685C138.393 103.621 138.81 103.612 139.254 103.519C139.448 103.487 139.643 103.455 139.892 103.394C140.336 103.301 140.724 103.237 141.168 103.144C141.278 103.086 141.362 103.112 141.472 103.054C142.554 102.835 143.69 102.588 144.769 102.231C148.26 101.376 158.784 97.3077 160.231 101.12C157.341 104.051 153.915 106.631 150.059 108.663C129.105 119.918 103.117 112.007 91.9757 91.1342Z" fill="#FFE266"/>
<path d="M150.168 100.723C154.349 99.5754 159.232 98.6911 160.121 101.179C161.509 104.881 157.594 109.338 157.35 109.677C157.133 109.932 156.887 110.133 156.585 110.362L150.168 100.723Z" fill="#895140"/>
<path d="M160.15 101.234C158.269 103.14 156.216 104.855 153.938 106.408L150.197 100.778C150.446 100.717 150.696 100.656 150.89 100.624C150.945 100.595 151 100.566 151.084 100.592C151.278 100.56 151.444 100.473 151.638 100.441C151.693 100.412 151.777 100.438 151.832 100.409C152.331 100.287 152.83 100.165 153.273 100.072C153.328 100.043 153.412 100.069 153.468 100.04C153.662 100.008 153.801 100.005 153.995 99.9727C154.05 99.9437 154.134 99.9698 154.245 99.9117C154.439 99.8797 154.633 99.8477 154.827 99.8157C154.883 99.7867 154.883 99.7866 154.967 99.8127C155.161 99.7807 155.439 99.7747 155.634 99.7427C155.689 99.7137 155.773 99.7397 155.828 99.7107C155.967 99.7077 156.161 99.6757 156.3 99.6727C156.385 99.6988 156.44 99.6698 156.524 99.6958C156.663 99.6928 156.802 99.6898 156.941 99.6869C156.996 99.6578 157.081 99.6839 157.081 99.6839C157.304 99.707 157.443 99.704 157.666 99.7271C157.721 99.698 157.751 99.7531 157.806 99.7241C157.945 99.7211 158.029 99.7472 158.197 99.7993C158.281 99.8253 158.281 99.8253 158.365 99.8514C158.449 99.8774 158.618 99.9295 158.702 99.9556C158.786 99.9816 158.786 99.9816 158.87 100.008C159.038 100.06 159.151 100.141 159.265 100.222C159.265 100.222 159.294 100.277 159.349 100.248C159.462 100.329 159.546 100.355 159.604 100.465C159.633 100.521 159.633 100.521 159.717 100.547C159.746 100.602 159.859 100.683 159.917 100.793C159.946 100.848 159.946 100.848 159.975 100.903C160.004 100.958 160.062 101.068 160.15 101.234Z" fill="#A05F4B"/>
<path d="M84.798 65.3437L92.8894 65.1325L93.3849 84.1161L85.2936 84.3273L84.798 65.3437Z" fill="#A05F4B"/>
<path d="M84.7746 65.3688L88.8203 65.2632L89.3158 84.2467L85.2701 84.3523L84.7746 65.3688Z" fill="#895140"/>
<path d="M80.3121 100.52C80.2048 95.5089 80.7965 90.6222 82.0351 86.028C82.8918 83.1131 85.0779 77.2454 89.48 77.3183C95.2479 77.4455 95.8338 82.6969 95.8338 82.6969C95.8167 83.1986 95.7996 83.7003 95.8666 84.228C96.5331 108.862 114.454 128.977 137.775 133.297C141.946 134.266 155.396 135.482 154.859 140.339C154.375 145.029 147.831 147.703 147.336 147.965C142.772 149.455 137.944 150.31 132.933 150.418C104.567 151.08 81.001 128.802 80.3121 100.52Z" fill="#FFCD00"/>
<path d="M87.3664 93.072C87.2212 87.5883 87.9431 82.2811 89.396 77.2925C95.164 77.4197 95.7499 82.671 95.7499 82.671C95.7328 83.1727 95.7157 83.6744 95.7827 84.2022C95.8005 85.0373 95.8735 85.8435 95.8914 86.6787C95.8973 86.957 95.9584 87.2064 95.9643 87.4848C96.0313 88.0125 96.0432 88.5693 96.1393 89.1521C96.1743 89.4856 96.2643 89.79 96.2703 90.0684C96.3373 90.5962 96.4303 91.0398 96.4973 91.5675C96.5323 91.901 96.6224 92.2054 96.6574 92.5389C96.7504 92.9825 96.8725 93.4813 96.9105 93.9539C97.0006 94.2584 97.0355 94.5918 97.1256 94.8963C97.2477 95.395 97.3407 95.8386 97.5179 96.3083C97.608 96.6127 97.698 96.9172 97.7881 97.2216C97.9102 97.7203 98.1164 98.2451 98.2385 98.7438C98.2995 98.9932 98.3606 99.2425 98.4767 99.4629C98.7149 100.182 98.9821 100.956 99.2754 101.646C99.3625 101.811 99.4496 101.976 99.4816 102.171C99.7168 102.751 99.923 103.275 100.213 103.826C100.358 104.102 100.504 104.377 100.594 104.681C100.826 105.122 100.974 105.537 101.206 105.977C101.351 106.253 101.526 106.583 101.671 106.859C101.874 107.244 102.077 107.63 102.28 108.015C102.455 108.346 102.6 108.621 102.829 108.923C103.032 109.308 103.291 109.665 103.465 109.995C103.639 110.326 103.868 110.627 104.013 110.903C104.272 111.259 104.446 111.59 104.704 111.946C104.933 112.248 105.078 112.523 105.308 112.825C105.566 113.181 105.824 113.538 106.054 113.839C106.254 114.086 106.483 114.387 106.683 114.633C107.113 115.181 107.626 115.755 108.056 116.303C108.285 116.604 108.57 116.877 108.799 117.178C109.083 117.451 109.312 117.752 109.597 118.025C109.881 118.297 110.165 118.569 110.479 118.897C110.763 119.169 110.963 119.416 111.248 119.688C111.532 119.961 111.846 120.288 112.185 120.532C112.44 120.749 112.696 120.966 112.98 121.239C113.264 121.511 113.633 121.81 113.917 122.082C114.172 122.299 114.428 122.517 114.683 122.734C115.022 122.977 115.391 123.276 115.675 123.548C115.931 123.766 116.157 123.928 116.467 124.116C116.836 124.415 117.175 124.658 117.599 124.928C117.825 125.09 118.022 125.197 118.248 125.359C119.661 126.304 121.129 127.219 122.678 128.022C122.875 128.129 123.102 128.291 123.354 128.369C123.749 128.584 124.227 128.824 124.677 129.01C124.958 129.143 125.155 129.25 125.437 129.383C125.886 129.569 126.281 129.783 126.73 129.968C127.012 130.101 127.264 130.18 127.546 130.313C127.995 130.498 128.445 130.684 128.894 130.869C129.147 130.947 129.428 131.08 129.68 131.158C130.13 131.344 130.635 131.5 131.055 131.63C131.307 131.708 131.56 131.787 131.812 131.865C132.317 132.021 132.822 132.177 133.326 132.334C133.41 132.36 133.579 132.412 133.663 132.438C134.979 132.8 136.322 133.077 137.665 133.355C141.836 134.324 155.231 135.569 154.749 140.398C150.076 141.946 145.083 142.888 139.877 143.028C111.621 143.633 88.1104 121.325 87.3664 93.072Z" fill="#FFE266"/>
<path d="M144.373 134.464C149.492 135.497 155.124 137.103 154.775 140.313C154.291 145.003 147.747 147.677 147.251 147.939C146.892 148.058 146.477 148.206 146.089 148.27L144.373 134.464Z" fill="#895140"/>
<path d="M154.776 140.314C151.789 141.324 148.603 142.089 145.381 142.52L144.402 134.52C144.71 134.569 144.962 134.647 145.269 134.696C145.353 134.722 145.438 134.748 145.493 134.719C145.716 134.742 145.968 134.82 146.137 134.872C146.221 134.899 146.305 134.925 146.389 134.951C146.949 135.078 147.537 135.26 148.097 135.388C148.181 135.414 148.265 135.44 148.35 135.466C148.518 135.518 148.77 135.596 148.938 135.648C149.022 135.674 149.107 135.7 149.191 135.726C149.443 135.804 149.611 135.856 149.864 135.935C149.948 135.961 149.948 135.961 150.032 135.987C150.284 136.065 150.536 136.143 150.763 136.305C150.847 136.331 150.931 136.357 150.96 136.412C151.128 136.465 151.325 136.572 151.494 136.624C151.578 136.65 151.662 136.676 151.746 136.702C151.914 136.754 152.056 136.89 152.225 136.942C152.309 136.969 152.338 137.024 152.422 137.05C152.619 137.157 152.816 137.264 153.014 137.371C153.043 137.426 153.127 137.452 153.156 137.507C153.269 137.589 153.382 137.67 153.524 137.806C153.553 137.861 153.637 137.887 153.666 137.942C153.78 138.023 153.893 138.104 153.951 138.215C153.98 138.27 154.064 138.296 154.093 138.351C154.235 138.487 154.322 138.652 154.38 138.762C154.409 138.817 154.409 138.817 154.438 138.873C154.496 138.983 154.554 139.093 154.613 139.203C154.642 139.258 154.671 139.313 154.7 139.368C154.758 139.478 154.761 139.618 154.79 139.673C154.819 139.728 154.793 139.812 154.822 139.867C154.796 139.951 154.828 140.145 154.776 140.314Z" fill="#A05F4B"/>
<path d="M70.5789 93.403C72.8498 88.8981 75.6895 84.9381 78.9847 81.4419C81.083 79.2802 85.8684 75.1394 89.6743 77.286C94.6927 80.1309 92.7091 85.0473 92.7091 85.0473C92.4687 85.526 92.1992 85.9495 92.0139 86.3991C80.8705 108.39 87.1145 134.659 105.618 149.47C108.853 152.27 120.072 159.8 117.316 163.786C114.642 167.659 107.58 166.947 107.049 166.875C102.351 165.972 97.6958 164.485 93.191 162.214C67.9081 149.497 57.7786 118.66 70.5789 93.403Z" fill="#FFCD00"/>
<path d="M80.3146 90.2419C82.8 85.3426 85.9381 81.0141 89.6189 77.3147C94.6373 80.1595 92.6537 85.076 92.6537 85.076C92.4133 85.5546 92.1438 85.9781 91.9585 86.4277C91.5848 87.1877 91.2663 87.9187 90.8926 88.6787C90.8145 88.931 90.6522 89.1573 90.574 89.4096C90.3626 89.9433 90.1222 90.4219 89.9659 90.9266C89.8327 91.208 89.7285 91.5444 89.6503 91.7968C89.465 92.2464 89.3087 92.751 89.1233 93.2006C89.0191 93.5371 88.8859 93.8184 88.8368 94.1259C88.6514 94.5755 88.5502 95.0511 88.449 95.5267C88.3448 95.8632 88.2957 96.1706 88.1624 96.452C88.0612 96.9276 87.9049 97.4323 87.8037 97.9079C87.7545 98.2153 87.6503 98.5518 87.5722 98.8041C87.4449 99.3639 87.3437 99.8395 87.2715 100.37C87.1933 100.623 87.1703 100.846 87.1211 101.153C86.9708 101.936 86.8755 102.69 86.7803 103.444C86.7282 103.613 86.7602 103.807 86.7081 103.975C86.6649 104.561 86.5667 105.176 86.5235 105.762C86.4744 106.069 86.5094 106.402 86.4602 106.71C86.4141 107.157 86.397 107.658 86.4349 108.131C86.4149 108.493 86.4498 108.827 86.4007 109.134C86.4097 109.552 86.3635 109.998 86.4015 110.471C86.3814 110.834 86.4164 111.167 86.3963 111.53C86.4052 111.947 86.4142 112.365 86.4231 112.782C86.4581 113.116 86.467 113.533 86.502 113.867C86.5109 114.284 86.575 114.673 86.6129 115.146C86.6479 115.479 86.7119 115.868 86.7469 116.201C86.811 116.59 86.8489 117.062 86.942 117.506C86.977 117.839 87.0119 118.173 87.131 118.532C87.23 119.254 87.3841 119.947 87.5673 120.696C87.6313 121.084 87.7504 121.444 87.8695 121.803C87.9335 122.192 88.0526 122.551 88.1717 122.911C88.2908 123.27 88.3839 123.714 88.503 124.073C88.6221 124.433 88.7121 124.737 88.8312 125.097C88.9794 125.511 89.0985 125.871 89.2466 126.286C89.3367 126.59 89.4558 126.95 89.63 127.28C89.7781 127.695 89.9262 128.109 90.1004 128.44C90.1905 128.744 90.3647 129.075 90.4547 129.379C90.6029 129.794 90.8061 130.179 90.9542 130.594C91.0994 130.869 91.1894 131.174 91.3346 131.449C91.5378 131.835 91.715 132.304 91.9182 132.69C92.0343 132.91 92.1504 133.131 92.2665 133.351C93.0794 134.893 93.9183 136.351 94.8964 137.807C95.0125 138.027 95.1837 138.218 95.2998 138.439C95.5872 138.85 95.8454 139.207 96.1328 139.618C96.304 139.81 96.4491 140.085 96.6203 140.276C96.9077 140.688 97.221 141.015 97.5084 141.427C97.7086 141.673 97.8798 141.865 98.08 142.111C98.4224 142.494 98.6807 142.85 99.0231 143.233C99.1944 143.424 99.3946 143.671 99.5658 143.862C99.9082 144.244 100.222 144.572 100.564 144.955C100.735 145.146 100.906 145.337 101.133 145.499C101.475 145.882 101.873 146.236 102.27 146.589C102.383 146.67 102.441 146.78 102.554 146.862C103.55 147.815 104.571 148.684 105.647 149.525C108.882 152.324 120.071 159.8 117.345 163.841C112.452 162.971 107.629 161.431 103.011 159.079C77.67 146.252 67.5694 115.47 80.3146 90.2419Z" fill="#FFE266"/>
<path d="M110.835 153.759C114.833 157.071 119.043 161.186 117.206 163.844C114.531 167.717 107.47 167.004 106.939 166.932C106.547 166.857 106.156 166.782 105.764 166.707L110.835 153.759Z" fill="#895140"/>
<path d="M117.261 163.815C114.103 163.297 110.964 162.418 107.959 161.256L110.89 153.73C111.116 153.892 111.372 154.109 111.543 154.3C111.572 154.356 111.656 154.382 111.714 154.492C111.856 154.628 112.082 154.79 112.225 154.926C112.254 154.981 112.338 155.008 112.396 155.118C112.822 155.526 113.304 155.906 113.73 156.315C113.759 156.37 113.873 156.451 113.902 156.506C114.044 156.642 114.186 156.778 114.357 156.97C114.386 157.025 114.499 157.106 114.528 157.161C114.7 157.352 114.842 157.488 115.013 157.68C115.042 157.735 115.071 157.79 115.126 157.761C115.297 157.952 115.468 158.143 115.64 158.335C115.669 158.39 115.698 158.445 115.811 158.526C115.953 158.662 116.04 158.828 116.182 158.964C116.211 159.019 116.269 159.129 116.354 159.155C116.441 159.32 116.583 159.456 116.67 159.622C116.699 159.677 116.728 159.732 116.757 159.787C116.873 160.007 116.96 160.173 117.131 160.364C117.16 160.419 117.189 160.474 117.218 160.529C117.306 160.694 117.364 160.805 117.422 160.915C117.451 160.97 117.48 161.025 117.509 161.08C117.567 161.19 117.57 161.329 117.628 161.439C117.657 161.495 117.686 161.55 117.66 161.634C117.692 161.828 117.724 162.022 117.727 162.161C117.756 162.217 117.701 162.246 117.73 162.301C117.733 162.44 117.736 162.579 117.739 162.718C117.713 162.802 117.742 162.857 117.687 162.886C117.661 162.971 117.664 163.11 117.582 163.223C117.556 163.307 117.556 163.307 117.53 163.391C117.449 163.504 117.342 163.702 117.261 163.815Z" fill="#A05F4B"/>
</g>
<path d="M-33.5904 145.78C17.2925 185.808 35.4881 170.315 35.4881 170.315C46.248 153.58 -33.5904 145.78 -33.5904 145.78Z" fill="url(#paint0_linear)"/>
<path d="M39.2252 141.251C45.4776 122.417 -33.8827 134.184 -33.8827 134.184C25.2333 160.521 39.2252 141.251 39.2252 141.251Z" fill="url(#paint1_linear)"/>
<path d="M-39.3173 169.943C6.77977 215.344 26.5727 202.324 26.5727 202.324C38.9839 186.616 -39.3173 169.943 -39.3173 169.943Z" fill="url(#paint2_linear)"/>
<path d="M34.9369 113.818C37.119 94.1086 -38.0223 122.204 -38.0223 122.204C25.4346 135.669 34.9369 113.818 34.9369 113.818Z" fill="url(#paint3_linear)"/>
<path d="M-49.9564 73.2475C-0.332461 114.677 28.432 100.543 28.432 100.543C39.424 84.0576 -49.9564 73.2475 -49.9564 73.2475Z" fill="url(#paint4_linear)"/>
<path d="M53.007 10.9515C41.7573 66.7676 26.9077 89.6258 26.9077 89.6258C58.9259 98.3 53.007 10.9515 53.007 10.9515Z" fill="url(#paint5_linear)"/>
<path d="M74.5869 34.2003C52.8401 86.7293 34.0009 106.543 34.0009 106.543C63.6255 121.161 74.5869 34.2003 74.5869 34.2003Z" fill="url(#paint6_linear)"/>
<path d="M88.8917 58.3858C60.513 107.53 38.8804 124.585 38.8804 124.585C66.4333 142.988 88.8917 58.3858 88.8917 58.3858Z" fill="url(#paint7_linear)"/>
<path d="M70.5753 141.935C87.3876 124.701 96.7322 87.6397 96.7322 87.6397C86.7927 108.267 77.3636 121.673 64.7665 129.41C45.5005 141.243 41.7339 138.689 39.5442 152.123C38.2212 161.728 54.5309 157.991 70.5753 141.935Z" fill="url(#paint8_linear)"/>
<path d="M64.5602 180.328C82.5238 164.585 94.9747 128.363 94.9747 128.363C83.384 147.964 73.0177 160.611 59.9745 167.365C39.7982 177.716 36.2817 174.931 33.1369 188.088C30.6177 197.407 47.3556 195.134 64.5602 180.328Z" fill="url(#paint9_linear)"/>
<path d="M55.6795 217.889C78.6044 211.502 105.461 183.781 105.461 183.781C86.6413 196.596 71.6611 203.52 57.1551 204.187C34.6777 205.039 32.6611 200.861 24.0626 211.402C17.75 218.89 33.7276 224.071 55.6795 217.889Z" fill="url(#paint10_linear)"/>
<path d="M-31.7236 4.9002C-8.79629 76.2286 23.8193 88.304 23.8193 88.304C42.4238 81.2735 -31.7236 4.9002 -31.7236 4.9002Z" fill="url(#paint11_linear)"/>
<g opacity="0.86">
<path d="M-16.3338 272.167C-17.0927 273.104 -17.1466 274.55 -16.2094 275.309C-15.2723 276.068 -13.8262 276.122 -13.0672 275.184C-12.8082 274.711 -4.01365 265.385 6.74628 248.649C16.4883 233.324 29.7136 208.716 36.8608 178.813C46.5631 138.627 42.7838 110.49 23.3563 81.287C22.6692 80.296 21.232 80.0011 20.241 80.6883C19.75 80.9113 19.4911 81.3844 19.4731 81.8664C19.2052 82.5805 19.1782 83.3036 19.6423 83.8035C38.1417 112.006 41.9569 139.18 32.5584 177.688C18.8895 233.655 -15.8338 271.702 -16.3338 272.167Z" fill="#A8D8C5"/>
</g>
<path d="M0.681517 223.983C-9.00516 294.734 15.5024 303.64 15.5024 303.64C37.5593 304.204 0.681517 223.983 0.681517 223.983Z" fill="url(#paint12_linear)"/>
<path d="M45.3066 290.704C66.886 286.318 11.6124 217.287 11.6124 217.287C19.3207 288.157 45.3066 290.704 45.3066 290.704Z" fill="url(#paint13_linear)"/>
<path d="M-25.7877 231.896C-43.59 301.126 -19.8724 312.566 -19.8724 312.566C1.8551 315.806 -25.7877 231.896 -25.7877 231.896Z" fill="url(#paint14_linear)"/>
<path d="M69.1943 271.626C89.1597 262.694 20.7141 206.735 20.7141 206.735C43.01 274.576 69.1943 271.626 69.1943 271.626Z" fill="url(#paint15_linear)"/>
<path d="M78.0067 257.952C99.8482 259.206 60.5471 168.124 60.5471 168.124C48.7164 238.459 78.0067 257.952 78.0067 257.952Z" fill="url(#paint16_linear)"/>
<path d="M177.196 231.539C117.858 251.686 87.6998 250.365 87.6998 250.365C97.158 285.653 177.196 231.539 177.196 231.539Z" fill="url(#paint17_linear)"/>
<path d="M167.014 264.996C104.935 273.678 75.6516 266.314 75.6516 266.314C78.118 302.958 167.014 264.996 167.014 264.996Z" fill="url(#paint18_linear)"/>
<path d="M152.051 291.91C89.3487 292.06 61.2142 281.012 61.2142 281.012C58.8751 317.673 152.051 291.91 152.051 291.91Z" fill="url(#paint19_linear)"/>
<path d="M62.3733 321.038C87.901 327.484 128.641 315.936 128.641 315.936C103.507 317.95 85.5496 316.392 71.2869 308.659C49.1662 296.96 49.7532 291.838 35.6705 297.299C25.371 301.16 37.7666 314.879 62.3733 321.038Z" fill="url(#paint20_linear)"/>
<path d="M88.8414 336.619C63.5907 336.576 45.8344 333.565 32.0891 324.983C11.0034 311.585 11.8207 306.534 -2.43523 310.931C-12.7496 314.03 -1.40377 328.685 22.3264 336.844C47.2796 345.132 88.8414 336.619 88.8414 336.619Z" fill="url(#paint21_linear)"/>
<path d="M41.7295 377.507C19.0195 366.887 4.09343 356.421 -4.48946 342.628C-17.8676 321.529 -15.0499 317.355 -29.7412 315.046C-40.3747 313.498 -36.3649 331.424 -18.3271 348.924C0.416265 367.401 41.7295 377.507 41.7295 377.507Z" fill="url(#paint22_linear)"/>
<path d="M135.741 147.364C80.4824 208.702 87.0932 246.639 87.0932 246.639C104.294 260.341 135.741 147.364 135.741 147.364Z" fill="url(#paint23_linear)"/>
<path d="M-74.816 319.431C-54.8164 320.111 -23.9406 319.129 8.44101 309.27C51.8995 296.297 76.6215 276.974 93.7956 242.16C94.4567 240.851 93.8948 239.412 92.8153 238.823C92.3548 238.679 91.8943 238.536 91.362 238.622C90.5995 238.637 89.9236 239.184 89.7081 239.875C73.267 273.149 49.4512 291.996 7.43115 304.407C-53.851 322.685 -109.467 310.645 -109.927 310.502C-111.309 310.071 -112.589 310.935 -112.79 312.388C-113.22 313.769 -112.356 315.049 -110.903 315.25C-110.514 315.624 -96.499 318.479 -74.816 319.431Z" fill="url(#paint24_linear)"/>
</g>
<defs>
<linearGradient id="paint0_linear" x1="1.0031" y1="168.495" x2="1.79987" y2="147.098" gradientUnits="userSpaceOnUse">
<stop stop-color="#A7D7C5"/>
<stop offset="1" stop-color="#E7F1F0"/>
</linearGradient>
<linearGradient id="paint1_linear" x1="2.54666" y1="144.818" x2="3.09333" y2="130.137" gradientUnits="userSpaceOnUse">
<stop stop-color="#A7D7C5"/>
<stop offset="1" stop-color="#E7F1F0"/>
</linearGradient>
<linearGradient id="paint2_linear" x1="-6.21734" y1="198.189" x2="-5.21286" y2="171.213" gradientUnits="userSpaceOnUse">
<stop stop-color="#A7D7C5"/>
<stop offset="1" stop-color="#E7F1F0"/>
</linearGradient>
<linearGradient id="paint3_linear" x1="-1.73387" y1="123.427" x2="-1.07964" y2="105.858" gradientUnits="userSpaceOnUse">
<stop stop-color="#A7D7C5"/>
<stop offset="1" stop-color="#E7F1F0"/>
</linearGradient>
<linearGradient id="paint4_linear" x1="-10.7478" y1="97.7215" x2="-9.89202" y2="74.7393" gradientUnits="userSpaceOnUse">
<stop stop-color="#A7D7C5"/>
<stop offset="1" stop-color="#E7F1F0"/>
</linearGradient>
<linearGradient id="paint5_linear" x1="39.5221" y1="78.1071" x2="42.0379" y2="10.5431" gradientUnits="userSpaceOnUse">
<stop stop-color="#A7D7C5"/>
<stop offset="1" stop-color="#E7F1F0"/>
</linearGradient>
<linearGradient id="paint6_linear" x1="53.3028" y1="96.988" x2="55.667" y2="33.4958" gradientUnits="userSpaceOnUse">
<stop stop-color="#A7D7C5"/>
<stop offset="1" stop-color="#E7F1F0"/>
</linearGradient>
<linearGradient id="paint7_linear" x1="62.9406" y1="116.877" x2="65.1514" y2="57.5018" gradientUnits="userSpaceOnUse">
<stop stop-color="#A7D7C5"/>
<stop offset="1" stop-color="#E7F1F0"/>
</linearGradient>
<linearGradient id="paint8_linear" x1="67.1049" y1="147.079" x2="69.3561" y2="86.6203" gradientUnits="userSpaceOnUse">
<stop stop-color="#A7D7C5"/>
<stop offset="1" stop-color="#E7F1F0"/>
</linearGradient>
<linearGradient id="paint9_linear" x1="62.996" y1="184.112" x2="65.1133" y2="127.251" gradientUnits="userSpaceOnUse">
<stop stop-color="#A7D7C5"/>
<stop offset="1" stop-color="#E7F1F0"/>
</linearGradient>
<linearGradient id="paint10_linear" x1="63.4572" y1="215.51" x2="64.6952" y2="182.263" gradientUnits="userSpaceOnUse">
<stop stop-color="#A7D7C5"/>
<stop offset="1" stop-color="#E7F1F0"/>
</linearGradient>
<linearGradient id="paint11_linear" x1="-3.58408" y1="74.6478" x2="-1.02952" y2="6.04313" gradientUnits="userSpaceOnUse">
<stop stop-color="#A7D7C5"/>
<stop offset="1" stop-color="#E7F1F0"/>
</linearGradient>
<linearGradient id="paint12_linear" x1="19.3604" y1="297.809" x2="-22.3712" y2="252.596" gradientUnits="userSpaceOnUse">
<stop stop-color="#74B49B"/>
<stop offset="1" stop-color="#5C8D89"/>
</linearGradient>
<linearGradient id="paint13_linear" x1="46.6268" y1="285.316" x2="11.615" y2="224.385" gradientUnits="userSpaceOnUse">
<stop stop-color="#74B49B"/>
<stop offset="1" stop-color="#5C8D89"/>
</linearGradient>
<linearGradient id="paint14_linear" x1="-14.7548" y1="306.772" x2="-54.6051" y2="271.299" gradientUnits="userSpaceOnUse">
<stop stop-color="#74B49B"/>
<stop offset="1" stop-color="#5C8D89"/>
</linearGradient>
<linearGradient id="paint15_linear" x1="68.3424" y1="267.415" x2="46.6599" y2="204.056" gradientUnits="userSpaceOnUse">
<stop stop-color="#74B49B"/>
<stop offset="1" stop-color="#5C8D89"/>
</linearGradient>
<linearGradient id="paint16_linear" x1="81.4943" y1="251.129" x2="34.582" y2="200.363" gradientUnits="userSpaceOnUse">
<stop stop-color="#74B49B"/>
<stop offset="1" stop-color="#5C8D89"/>
</linearGradient>
<linearGradient id="paint17_linear" x1="158.392" y1="275.072" x2="137.278" y2="203.808" gradientUnits="userSpaceOnUse">
<stop stop-color="#74B49B"/>
<stop offset="1" stop-color="#5C8D89"/>
</linearGradient>
<linearGradient id="paint18_linear" x1="151.393" y1="296.854" x2="143.718" y2="236.862" gradientUnits="userSpaceOnUse">
<stop stop-color="#74B49B"/>
<stop offset="1" stop-color="#5C8D89"/>
</linearGradient>
<linearGradient id="paint19_linear" x1="138.83" y1="315.415" x2="137.941" y2="267.94" gradientUnits="userSpaceOnUse">
<stop stop-color="#74B49B"/>
<stop offset="1" stop-color="#5C8D89"/>
</linearGradient>
<linearGradient id="paint20_linear" x1="116.194" y1="335.549" x2="118.046" y2="294.437" gradientUnits="userSpaceOnUse">
<stop stop-color="#74B49B"/>
<stop offset="1" stop-color="#5C8D89"/>
</linearGradient>
<linearGradient id="paint21_linear" x1="77.6784" y1="351.974" x2="80.4526" y2="315.539" gradientUnits="userSpaceOnUse">
<stop stop-color="#74B49B"/>
<stop offset="1" stop-color="#5C8D89"/>
</linearGradient>
<linearGradient id="paint22_linear" x1="37.3034" y1="372.548" x2="30.3959" y2="311.433" gradientUnits="userSpaceOnUse">
<stop stop-color="#74B49B"/>
<stop offset="1" stop-color="#5C8D89"/>
</linearGradient>
<linearGradient id="paint23_linear" x1="105.1" y1="241.894" x2="73.7941" y2="225.121" gradientUnits="userSpaceOnUse">
<stop stop-color="#74B49B"/>
<stop offset="1" stop-color="#5C8D89"/>
</linearGradient>
<linearGradient id="paint24_linear" x1="48.1056" y1="351.756" x2="-15.6696" y2="182.055" gradientUnits="userSpaceOnUse">
<stop stop-color="#74B49B"/>
<stop offset="1" stop-color="#5C8D89"/>
</linearGradient>
<clipPath id="clip0">
<rect width="393.372" height="340.794" fill="white" transform="translate(217.1 355.195) rotate(-177.868)"/>
</clipPath>
</defs>
</svg>
