<svg width="55" height="55" viewBox="0 0 55 55" fill="none" xmlns="http://www.w3.org/2000/svg">
<path d="M44.0659 5.92471C43.1668 5.08465 42.2942 4.59209 41.0386 4.54824C30.3175 3.55005 19.5911 2.48236 8.86995 1.48417C5.85846 1.22498 3.03854 0.741435 0.000369452 1.04353C0.819424 3.56744 2.0482 5.99014 3.13862 8.4234C9.49501 22.4081 16.2505 36.1525 23.4795 49.721C24.2934 51.2666 25.1711 52.7375 26.0488 54.2083C35.9949 41.4244 44.8504 28.0248 54.2113 14.8662C50.8543 11.9071 47.4282 8.95331 44.0659 5.92471ZM41.5859 9.88914C43.7407 10.773 45.3846 12.2552 46.8475 14.1008C42.4685 15.0646 38.1957 16.5096 33.8699 17.2597C36.1741 14.6369 38.6007 11.795 41.5859 9.88914ZM24.6616 43.3392C19.2518 32.6376 14.0443 21.8507 8.70371 11.1438C8.4484 10.5342 8.1186 9.86035 7.86329 9.25072C13.9816 12.8376 19.6795 17.2956 25.5478 21.2512C25.6319 28.7246 25.0669 35.8982 24.6616 43.3392ZM21.9147 13.7693C18.3129 11.2483 14.642 8.73266 11.4233 5.76299C19.7875 5.96263 28.1568 7.14055 36.4942 7.90148C34.4826 10.7116 32.0188 13.067 29.4858 15.4276C28.6344 16.1219 27.9959 16.8697 26.8945 17.0238C25.0909 16.183 23.5267 14.8345 21.9147 13.7693ZM29.1097 43.2788C28.4827 36.8954 29.4466 30.3904 29.7188 23.9383C29.7563 22.6073 30.2884 22.287 31.5175 21.9833C36.4446 20.9077 41.2707 19.4204 46.2085 18.4838C40.8015 26.9362 34.8838 35.078 29.1097 43.2788Z" fill="url(#paint0_linear)"/>
<defs>
<linearGradient id="paint0_linear" x1="3.69579" y1="5.92753" x2="54.1139" y2="46.4324" gradientUnits="userSpaceOnUse">
<stop stop-color="#FF9E2C"/>
<stop offset="1" stop-color="#F07129"/>
</linearGradient>
</defs>
</svg>
