<svg width="34" height="37" viewBox="0 0 34 37" fill="none" xmlns="http://www.w3.org/2000/svg">
<path d="M33.5772 28.3051C33.9292 27.5876 34.0704 26.9523 33.8602 26.1638C32.454 19.3133 31.09 12.4465 29.6837 5.59598C29.2755 3.67574 29.043 1.83212 28.281 0.00138746C26.8675 0.987391 25.5944 2.20885 24.2885 3.34634C16.8003 9.93938 9.53683 16.735 2.4722 23.7916C1.66563 24.5895 0.917584 25.4129 0.169547 26.2363C9.99309 30.0001 19.9931 32.9699 29.9388 36.2993C31.143 33.654 32.3308 30.9668 33.5772 28.3051ZM30.645 27.5134C30.5031 29.0194 29.8928 30.3211 29.0226 31.579C27.596 29.0401 25.8904 26.6583 24.6067 24.1121C26.672 25.0481 28.8965 26.0188 30.645 27.5134ZM6.66112 23.3198C12.2882 17.9356 18.0066 12.6608 23.65 7.31854C23.9806 7.04467 24.337 6.71237 24.6675 6.43849C23.5952 10.9183 21.9022 15.3014 20.5535 19.6954C15.9256 21.1603 11.3614 22.1652 6.66112 23.3198ZM24.5158 16.0237C25.4014 13.3092 26.2707 10.5526 27.5076 7.99135C28.9645 13.2263 29.8146 18.6494 30.9177 23.9739C28.7913 23.2551 26.862 22.1694 24.9164 21.0417C24.3241 20.6439 23.7387 20.3885 23.4348 19.7332C23.6164 18.4535 24.1586 17.2267 24.5158 16.0237ZM7.53939 26.0724C11.3873 24.4762 15.6115 23.8456 19.6722 22.7951C20.5063 22.5668 20.8059 22.8369 21.2269 23.5432C22.8266 26.4015 24.663 29.1192 26.1783 32.0103C19.9042 30.2482 13.7265 28.1101 7.53939 26.0724Z" fill="url(#paint0_linear)"/>
<defs>
<linearGradient id="paint0_linear" x1="25.9447" y1="3.22078" x2="10.3061" y2="42.2053" gradientUnits="userSpaceOnUse">
<stop stop-color="#FF9E2C"/>
<stop offset="1" stop-color="#F07129"/>
</linearGradient>
</defs>
</svg>
