<svg width="32" height="43" viewBox="0 0 32 43" fill="none" xmlns="http://www.w3.org/2000/svg">
<path d="M28.9142 19.1352C28.6657 18.2872 28.3065 17.6636 27.5465 17.1773C21.2851 12.6396 15.0458 8.05691 8.78446 3.51915C7.01792 2.25763 5.45184 0.927491 3.46355 0.00312301C3.04677 1.86262 2.92024 3.8094 2.70433 5.71211C1.51873 16.6803 0.667649 27.6459 0.173626 38.6759C0.111403 39.9289 0.115977 41.1589 0.120574 42.389C10.9432 38.125 21.3169 33.0816 31.9148 28.372C30.9221 25.3154 29.8847 22.2367 28.9142 19.1352ZM25.9315 20.6786C26.9401 22.0129 27.4141 23.5302 27.6434 25.2059C24.5843 24.2001 21.415 23.5307 18.467 22.4123C20.8504 21.6339 23.3895 20.7648 25.9315 20.6786ZM3.2381 35.1638C3.80813 26.571 4.53436 17.9995 5.14908 9.42875C5.21423 8.95858 5.25682 8.42148 5.32197 7.95131C7.79179 12.4058 9.6832 17.2449 11.8636 21.8358C9.18249 26.4858 6.20987 30.7129 3.2381 35.1638ZM12.3543 15.8828C11.0501 13.0075 9.70114 10.1101 8.79782 7.09757C13.8945 10.2798 18.6366 14.0686 23.5114 17.588C21.2404 18.5892 18.8562 19.1439 16.4273 19.6767C15.6472 19.7944 14.9791 20.0231 14.242 19.7155C13.4347 18.5362 12.9611 17.1307 12.3543 15.8828ZM6.00944 36.7532C7.95638 32.5785 10.9311 28.9104 13.4589 25.0221C13.9688 24.2131 14.4148 24.2097 15.2856 24.4716C18.7243 25.6086 22.2511 26.4543 25.6455 27.6812C19.2125 30.928 12.5773 33.7961 6.00944 36.7532Z" fill="url(#paint0_linear)"/>
<defs>
<linearGradient id="paint0_linear" x1="3.96146" y1="4.37324" x2="20.3106" y2="47.8466" gradientUnits="userSpaceOnUse">
<stop stop-color="#FF9E2C"/>
<stop offset="1" stop-color="#F07129"/>
</linearGradient>
</defs>
</svg>
