<svg width="23" height="22" viewBox="0 0 23 22" fill="none" xmlns="http://www.w3.org/2000/svg">
<path opacity="0.5" d="M16.4927 0.299585C15.97 0.234723 15.5439 0.283553 15.0979 0.584173C11.1332 2.9348 7.14917 5.26268 3.18447 7.61331C2.07614 8.28093 0.977748 8.82265 0.00134379 9.6914C0.919824 10.3597 1.95477 10.8898 2.94445 11.4584C8.6634 14.7039 14.4602 17.7658 20.3767 20.6476C21.0474 20.9783 21.7213 21.267 22.3953 21.5557C22.6253 14.6261 22.3227 7.75746 22.2558 0.845206C20.3487 0.6645 18.419 0.503029 16.4927 0.299585ZM16.6307 2.29654C17.5994 2.06078 18.5416 2.16074 19.5125 2.43208C18.2381 3.86728 17.1215 5.44242 15.8117 6.79019C15.9502 5.30217 16.076 3.70748 16.6307 2.29654ZM19.1811 18.1397C14.6158 15.7934 10.099 13.3666 5.55632 11.0011C5.31456 10.8541 5.03085 10.7037 4.78909 10.5567C7.81052 10.2604 10.9054 10.3715 13.9329 10.2658C15.8416 12.8334 17.4501 15.4603 19.1811 18.1397ZM10.7927 8.58793C8.9111 8.62056 7.00683 8.67242 5.14506 8.45326C8.0925 6.41881 11.2878 4.72191 14.3671 2.8886C14.3771 4.36792 14.1161 5.80345 13.8324 7.2582C13.7121 7.71279 13.679 8.13244 13.3362 8.46282C12.5 8.62518 11.619 8.55147 10.7927 8.58793ZM20.7067 17.0001C18.8841 14.9466 17.582 12.451 16.0535 10.1476C15.7317 9.67711 15.8355 9.43234 16.1849 9.01803C17.6211 7.40627 18.9187 5.6773 20.3935 4.11102C20.6464 8.39868 20.6443 12.7072 20.7067 17.0001Z" fill="url(#paint0_linear)"/>
<defs>
<linearGradient id="paint0_linear" x1="2.50973" y1="10.4537" x2="30.161" y2="11.8038" gradientUnits="userSpaceOnUse">
<stop stop-color="#FF9E2C"/>
<stop offset="1" stop-color="#F07129"/>
</linearGradient>
</defs>
</svg>
